<svg width="300" height="300" viewBox="0 0 300 300" fill="none" xmlns="http://www.w3.org/2000/svg">
<path d="M211.1 67C211.1 67 211.1 66.9 211.1 67C188.6 67 170.4 85.2 170.4 107.7V136C170.4 147.1 161.8 156.5 150.8 156.9C139.2 157.3 129.7 148 129.7 136.5C129.7 158.7 147.5 176.8 169.6 177.2C192.5 177.7 211.2 158.5 211.2 135.6V67H211.1Z" fill="#47225C"/>
<path d="M88.9 233.1C111.4 233.1 129.6 214.9 129.6 192.4V107.8C129.6 96.5 138.7 87.4 150 87.4C161.2 87.4 170.4 96.5 170.4 107.8C170.4 85.3 152.2 67.1 129.7 67.1C107.2 67.1 89 85.3 89 107.8V233.1H88.9Z" fill="#47225C"/>
</svg>
