<svg width="77" height="77" viewBox="0 0 77 77" fill="none" xmlns="http://www.w3.org/2000/svg">
<rect width="77" height="77" rx="8" fill="#B0B4D4" fill-opacity="0.05"/>
<path d="M47.25 37.9694C47.25 40.6094 46.1959 43.5223 44.4755 45.7704C42.7515 48.0231 40.4488 49.5 38 49.5V51C41.0741 51 43.7713 49.1586 45.6667 46.682C47.5655 44.2008 48.75 40.9733 48.75 37.9694H47.25ZM38 49.5C35.5512 49.5 33.2485 48.0231 31.5245 45.7704C29.8041 43.5223 28.75 40.6094 28.75 37.9694H27.25C27.25 40.9733 28.4345 44.2008 30.3333 46.682C32.2287 49.1586 34.9259 51 38 51V49.5ZM28.75 37.9694C28.75 32.7241 32.9066 28.5 38 28.5V27C32.0477 27 27.25 31.9266 27.25 37.9694H28.75ZM38 28.5C43.0934 28.5 47.25 32.7241 47.25 37.9694H48.75C48.75 31.9266 43.9523 27 38 27V28.5Z" fill="#B0B4D4"/>
<path d="M34.875 37.125C34.875 35.3991 36.2741 34 38 34C39.7259 34 41.125 35.3991 41.125 37.125C41.125 38.8509 39.7259 40.25 38 40.25C36.2741 40.25 34.875 38.8509 34.875 37.125Z" stroke="#00D99E" stroke-width="2"/>
</svg>
