<svg width="189" height="189" viewBox="0 0 189 189" fill="none" xmlns="http://www.w3.org/2000/svg">
<path d="M95.73 13.3103L96.6475 0L101.667 0.345721C103.049 0.441016 104.072 0.836601 104.738 1.53137C105.403 2.22724 105.702 3.06274 105.636 4.03896C105.577 4.88885 105.302 5.54706 104.811 6.01688C104.32 6.48671 103.745 6.787 103.087 6.91997C103.587 7.05626 104.027 7.29007 104.405 7.62249C104.782 7.95492 105.071 8.35604 105.267 8.82808C105.463 9.30013 105.544 9.80209 105.507 10.3351C105.459 11.0199 105.249 11.626 104.875 12.1545C104.501 12.6831 103.98 13.0831 103.312 13.3557C102.644 13.6283 101.84 13.7325 100.902 13.6671L95.73 13.3103ZM97.8598 11.7944L100.75 11.9939C101.561 12.0493 102.205 11.903 102.681 11.554C103.157 11.2049 103.419 10.6874 103.466 10.0038C103.512 9.32007 103.315 8.7616 102.874 8.32945C102.432 7.8973 101.813 7.65463 101.014 7.59922L98.1612 7.40309L97.8598 11.7944ZM98.2698 5.84291L101.027 6.03239C101.8 6.08558 102.402 5.94596 102.832 5.61243C103.262 5.2789 103.499 4.79578 103.543 4.16195C103.587 3.54143 103.42 3.03282 103.047 2.63723C102.672 2.24276 102.081 2.01671 101.27 1.9613L98.5502 1.77404L98.2698 5.84291Z" fill="#B0B4D4"/>
<path d="M107.01 14.2477L109.755 1.19229L114.25 2.13749C115.282 2.35467 116.094 2.70704 116.687 3.1946C117.279 3.68215 117.675 4.25614 117.874 4.91434C118.073 5.57254 118.097 6.26288 117.945 6.98424C117.775 7.79314 117.406 8.48126 116.839 9.0497C116.272 9.61815 115.504 9.95057 114.536 10.0459L116.151 16.1691L113.857 15.6871L112.426 9.89406L110.095 9.40429L108.989 14.6644L107.01 14.2477ZM110.406 7.9117L112.812 8.41699C113.707 8.60536 114.409 8.52558 114.917 8.17764C115.425 7.8297 115.753 7.3078 115.899 6.61192C116.046 5.91605 115.957 5.31657 115.634 4.8135C115.312 4.31043 114.69 3.9625 113.769 3.76969L111.383 3.26773L110.406 7.9117Z" fill="#B0B4D4"/>
<path d="M117.07 16.3498L126.31 5.54263L128.383 6.30943L128.332 20.515L126.33 19.7748L126.388 16.3209L121.275 14.4306L119.072 17.0911L117.07 16.3498ZM122.367 13.1263L126.408 14.62L126.496 8.171L122.367 13.1263Z" fill="#B0B4D4"/>
<path d="M129.562 21.1389L136.097 9.50735L137.859 10.4969L138.772 22.5306L143.691 13.7735L145.453 14.763L138.919 26.3945L137.157 25.405L136.243 13.3712L131.324 22.1284L129.562 21.1389Z" fill="#B0B4D4"/>
<path d="M140.754 27.63L149.047 17.1786L152.437 19.8679C153.662 20.8397 154.499 21.8536 154.951 22.9085C155.404 23.9645 155.51 25.0349 155.274 26.1208C155.037 27.2067 154.493 28.286 153.639 29.3608C152.794 30.4257 151.87 31.1969 150.867 31.6745C149.864 32.1521 148.798 32.2884 147.672 32.0834C146.545 31.8784 145.369 31.29 144.145 30.3193L140.754 27.63ZM143.403 27.5414L145.15 28.9276C146.095 29.6778 146.967 30.1177 147.764 30.2473C148.561 30.377 149.311 30.2495 150.012 29.8661C150.714 29.4827 151.385 28.8877 152.025 28.081C152.664 27.2743 153.095 26.4809 153.318 25.7008C153.54 24.9197 153.5 24.154 153.196 23.4016C152.892 22.6492 152.268 21.899 151.322 21.1488L149.576 19.7626L143.403 27.5414Z" fill="#B0B4D4"/>
<path d="M150.75 36.0171L160.111 26.5109L161.55 27.9281L152.19 37.4343L150.75 36.0171Z" fill="#B0B4D4"/>
<path d="M153.954 39.0222L164.278 30.5709L165.557 32.1344L162.024 43.6728L169.796 37.3102L171.076 38.8737L160.753 47.3251L159.473 45.7616L163.006 34.2231L155.234 40.5857L153.954 39.0222Z" fill="#B0B4D4"/>
<path d="M164.718 54.2472C164.093 53.1558 163.795 52.0599 163.824 50.9596C163.853 49.8592 164.184 48.8276 164.818 47.8636C165.452 46.8996 166.365 46.0774 167.555 45.3948C168.735 44.7189 169.91 44.3543 171.079 44.2989C172.248 44.2446 173.334 44.4972 174.336 45.0579C175.338 45.6186 176.174 46.4829 176.844 47.6519C177.602 48.975 177.913 50.2604 177.779 51.5092C177.645 52.758 177.091 53.8361 176.118 54.7448L174.981 52.7602C175.497 52.2305 175.783 51.6045 175.84 50.8842C175.895 50.164 175.69 49.3961 175.223 48.5805C174.528 47.3672 173.59 46.6381 172.409 46.3921C171.228 46.1461 169.949 46.4175 168.57 47.2065C167.192 47.9954 166.313 48.9528 165.933 50.0786C165.553 51.2045 165.688 52.3347 166.339 53.4705C166.996 54.6173 167.815 55.2933 168.796 55.4994C169.778 55.7055 170.838 55.5492 171.976 55.0296L170.176 51.887L171.532 51.1103L174.346 56.0224L168.062 59.6226L167.143 58.0181L168.761 56.8933C167.933 56.8546 167.187 56.6385 166.521 56.2429C165.856 55.8495 165.255 55.1836 164.718 54.2472Z" fill="#B0B4D4"/>
<path d="M174.903 66.5969C174.757 66.1769 174.726 65.7569 174.809 65.3381C174.892 64.9192 175.068 64.5447 175.338 64.2167C175.607 63.8876 175.957 63.6482 176.389 63.4986C176.821 63.349 177.248 63.318 177.669 63.4078C178.09 63.4964 178.463 63.6804 178.788 63.9574C179.113 64.2344 179.349 64.5835 179.494 65.0034C179.644 65.4356 179.677 65.8611 179.594 66.2799C179.511 66.6988 179.33 67.0711 179.053 67.3958C178.776 67.7205 178.422 67.9587 177.989 68.1083C177.557 68.2579 177.135 68.2911 176.722 68.2058C176.308 68.1205 175.939 67.9387 175.615 67.6617C175.291 67.3836 175.053 67.029 174.903 66.5969Z" fill="#00D99E"/>
<path d="M174.469 80.5066L186.874 73.5445L187.211 75.672L176.73 81.3842L188.467 83.597L188.8 85.7057L174.85 82.9178L174.469 80.5066Z" fill="#B0B4D4"/>
<path d="M175.583 89.0433L188.923 88.8272L188.998 93.4202C189.014 94.475 188.85 95.3449 188.507 96.0297C188.162 96.7145 187.69 97.2275 187.093 97.5677C186.494 97.9079 185.827 98.084 185.09 98.0962C184.265 98.1095 183.511 97.9023 182.831 97.4757C182.15 97.048 181.656 96.3732 181.349 95.4501L175.735 98.381L175.698 96.0374L181.03 93.3592L180.991 90.9768L175.617 91.0644L175.583 89.0433ZM182.515 90.9514L182.555 93.4102C182.569 94.3243 182.803 94.9914 183.254 95.4102C183.705 95.828 184.287 96.0319 184.998 96.0208C185.71 96.0097 186.275 95.7903 186.694 95.3648C187.113 94.9382 187.314 94.2556 187.299 93.316L187.259 90.8771L182.515 90.9514Z" fill="#B0B4D4"/>
<path d="M174.194 108.776C174.381 107.842 174.709 107.062 175.177 106.436C175.646 105.811 176.217 105.364 176.892 105.098C177.567 104.831 178.304 104.778 179.102 104.938C179.974 105.112 180.703 105.514 181.29 106.143C181.877 106.773 182.28 107.608 182.499 108.65C183.028 108.34 183.509 108.139 183.942 108.045C184.376 107.949 184.829 107.95 185.303 108.045C186.163 108.216 186.813 108.671 187.256 109.408C187.698 110.143 187.809 111.066 187.586 112.176C187.442 112.898 187.179 113.494 186.801 113.962C186.422 114.43 185.975 114.755 185.459 114.937C184.943 115.119 184.394 115.145 183.81 115.016L184.196 113.091C184.691 113.203 185.102 113.126 185.428 112.861C185.753 112.597 185.957 112.258 186.04 111.846C186.138 111.36 186.081 110.948 185.87 110.608C185.66 110.267 185.349 110.056 184.937 109.974C184.576 109.902 184.2 109.933 183.81 110.069C183.42 110.204 182.965 110.44 182.444 110.777L177.76 113.883C178.171 114.289 178.664 114.737 179.24 115.228L180.059 115.898L179.648 117.953L178.434 116.933C177.539 116.222 176.806 115.551 176.232 114.918L172.733 117.251L173.22 114.821L175.126 113.55C174.621 112.774 174.295 112.004 174.151 111.236C174.004 110.468 174.019 109.647 174.194 108.776ZM178.828 106.884C178.13 106.745 177.501 106.881 176.939 107.293C176.377 107.706 176.014 108.323 175.85 109.145C175.728 109.755 175.725 110.332 175.844 110.874C175.963 111.415 176.223 111.973 176.627 112.547L181.091 109.572C180.937 108.789 180.668 108.175 180.283 107.729C179.899 107.283 179.414 107.002 178.828 106.884Z" fill="#B0B4D4"/>
<path d="M171.156 121.885L181.352 131.795L180.454 133.815L166.28 132.856L167.146 130.905L170.589 131.184L172.803 126.203L170.289 123.834L171.156 121.885ZM174.033 127.376L172.284 131.312L178.714 131.813L174.033 127.376Z" fill="#B0B4D4"/>
<path d="M165.512 134.048L176.784 141.185L174.327 145.066C173.763 145.957 173.149 146.594 172.484 146.978C171.82 147.362 171.144 147.532 170.457 147.489C169.77 147.445 169.115 147.226 168.494 146.832C167.795 146.39 167.279 145.804 166.946 145.073C166.611 144.343 166.569 143.508 166.818 142.567L160.516 141.939L161.771 139.959L167.698 140.643L168.972 138.63L164.431 135.754L165.512 134.048ZM170.26 139.445L168.945 141.523C168.455 142.295 168.284 142.981 168.433 143.579C168.581 144.176 168.956 144.665 169.556 145.046C170.157 145.426 170.75 145.553 171.334 145.427C171.918 145.301 172.461 144.84 172.964 144.045L174.269 141.984L170.26 139.445Z" fill="#B0B4D4"/>
<path d="M157.884 151.222C158.181 150.891 158.534 150.66 158.94 150.531C159.347 150.401 159.76 150.373 160.178 150.45C160.596 150.526 160.975 150.717 161.316 151.023C161.656 151.329 161.89 151.686 162.015 152.099C162.142 152.51 162.162 152.925 162.076 153.344C161.991 153.763 161.801 154.137 161.504 154.469C161.198 154.809 160.842 155.044 160.435 155.175C160.029 155.304 159.615 155.326 159.198 155.242C158.779 155.157 158.4 154.962 158.059 154.656C157.719 154.35 157.487 153.997 157.36 153.595C157.235 153.192 157.215 152.781 157.3 152.362C157.384 151.941 157.579 151.562 157.884 151.222Z" fill="#00D99E"/>
<path d="M148.738 155.218L156.75 165.885L154.845 167.316L145.899 162.927L147.635 172.73L145.731 174.161L137.719 163.493L139.334 162.28L145.252 170.159L143.74 161.354L144.99 160.416L153.029 164.295L147.122 156.431L148.738 155.218Z" fill="#B0B4D4"/>
<path d="M136.566 164.122L138.214 178.245L136.242 179.244L125.857 169.552L127.761 168.587L130.254 170.977L135.117 168.512L134.662 165.088L136.566 164.122ZM135.329 170.198L131.487 172.146L136.158 176.595L135.329 170.198Z" fill="#B0B4D4"/>
<path d="M124.511 169.992L128.738 182.645L124.381 184.101C123.381 184.436 122.502 184.541 121.745 184.419C120.988 184.297 120.356 184.003 119.852 183.535C119.348 183.067 118.979 182.483 118.745 181.785C118.484 181.002 118.454 180.222 118.657 179.444C118.859 178.666 119.354 177.991 120.14 177.421L115.652 172.952L117.876 172.209L122.039 176.485L124.298 175.731L122.595 170.634L124.511 169.992ZM124.781 177.176L122.45 177.955C121.582 178.245 121.017 178.667 120.754 179.225C120.492 179.781 120.473 180.397 120.698 181.072C120.924 181.747 121.303 182.22 121.835 182.49C122.368 182.76 123.079 182.747 123.971 182.449L126.285 181.676L124.781 177.176Z" fill="#B0B4D4"/>
<path d="M113.888 173.376L116.325 186.492L114.339 186.861L113.294 181.24L109.166 187.822L106.711 188.279L110.593 182.149L104.162 175.182L106.578 174.733L111.735 180.366L112.812 178.654L111.9 173.744L113.888 173.376Z" fill="#B0B4D4"/>
<path d="M102.827 175.249L103.499 188.573L95.0287 189.001L94.9456 187.364L101.398 187.039L101.189 182.889L95.3069 183.186L95.226 181.587L101.108 181.29L100.891 176.988L94.4381 177.314L94.355 175.678L102.827 175.249Z" fill="#B0B4D4"/>
<path d="M89.2394 175.392L88.3352 187.059L92.2691 187.363L92.1427 188.998L82.2803 188.233L82.4066 186.599L86.3217 186.902L87.2259 175.235L89.2394 175.392Z" fill="#B0B4D4"/>
<path d="M81.7553 174.555L79.4947 187.704L77.5034 187.361L79.764 174.213L81.7553 174.555Z" fill="#B0B4D4"/>
<path d="M77.4102 173.918L73.7411 186.745L71.7985 186.19L68.1295 174.694L65.3669 184.35L63.4243 183.795L67.0934 170.968L69.0359 171.523L72.705 183.02L75.4676 173.363L77.4102 173.918Z" fill="#B0B4D4"/>
<path d="M59.9004 167.53C61.0351 168.073 61.9039 168.804 62.5056 169.726C63.1073 170.648 63.4209 171.685 63.4475 172.838C63.4741 173.991 63.1904 175.187 62.5987 176.424C62.0125 177.651 61.2534 178.619 60.3226 179.329C59.3917 180.039 58.3545 180.448 57.2109 180.556C56.0673 180.665 54.8883 180.429 53.6726 179.847C52.2974 179.19 51.3101 178.309 50.7106 177.206C50.1111 176.102 49.9537 174.901 50.2374 173.6L52.3008 174.586C52.1778 175.315 52.2974 175.992 52.6609 176.617C53.0244 177.241 53.6305 177.756 54.4782 178.162C55.7393 178.765 56.925 178.831 58.0365 178.362C59.1479 177.894 60.0455 176.943 60.7315 175.51C61.4163 174.077 61.5958 172.79 61.2678 171.647C60.9409 170.505 60.1863 169.652 59.0061 169.088C57.8137 168.518 56.7555 168.427 55.8302 168.816C54.9049 169.205 54.1225 169.937 53.482 171.01L56.7488 172.572L56.0751 173.982L50.9677 171.541L54.0915 165.007L55.7593 165.803L55.0678 167.648C55.7703 167.21 56.5084 166.964 57.2796 166.91C58.0531 166.858 58.9263 167.064 59.9004 167.53Z" fill="#B0B4D4"/>
<path d="M44.4971 163.162C44.8562 163.424 45.121 163.751 45.2906 164.144C45.4612 164.536 45.5288 164.944 45.4945 165.367C45.4601 165.79 45.3083 166.187 45.0379 166.556C44.7675 166.925 44.4351 167.193 44.0373 167.359C43.6406 167.525 43.2294 167.588 42.805 167.544C42.3806 167.501 41.9883 167.348 41.6293 167.087C41.2603 166.816 40.991 166.486 40.8203 166.094C40.6508 165.702 40.5865 165.294 40.6297 164.868C40.673 164.443 40.8292 164.046 41.0996 163.677C41.37 163.308 41.6991 163.041 42.0869 162.876C42.4748 162.711 42.8815 162.65 43.307 162.693C43.7314 162.736 44.1281 162.892 44.4971 163.162Z" fill="#00D99E"/>
<path d="M36.3594 150.564C37.0198 151.251 37.4819 152.001 37.7456 152.814C38.0094 153.628 38.0182 154.467 37.7722 155.329C37.5273 156.191 36.9733 157.036 36.1134 157.865L30.1128 163.641L28.7121 162.187L34.726 156.397C35.5682 155.586 35.9926 154.79 35.9981 154.008C36.0037 153.227 35.6768 152.492 35.0152 151.805C34.3636 151.128 33.6466 150.777 32.8654 150.753C32.0842 150.729 31.2719 151.122 30.4297 151.934L24.4158 157.723L23.0151 156.268L29.0157 150.492C29.8767 149.663 30.7466 149.148 31.6265 148.944C32.5064 148.741 33.353 148.79 34.1641 149.094C34.9742 149.396 35.7067 149.886 36.3594 150.564Z" fill="#B0B4D4"/>
<path d="M31.6738 145.895L23.7905 146.466L20.8395 153.68L19.4987 151.803L21.7338 146.341L15.9637 146.855L14.645 145.009L22.4929 144.486L25.4682 137.208L26.8091 139.084L24.554 144.584L30.3551 144.047L31.6738 145.895Z" fill="#B0B4D4"/>
<path d="M26.8656 135.532L9.97426 139.389L9.01904 137.653L25.9193 133.812L26.8656 135.532Z" fill="#B0B4D4"/>
<path d="M19.5296 124.566C19.8843 125.45 20.0305 126.32 19.9685 127.172C19.9064 128.026 19.5995 128.806 19.0476 129.513C18.4958 130.22 17.6658 130.796 16.5576 131.24L8.82612 134.338L8.0748 132.464L15.824 129.358C16.9089 128.922 17.6015 128.345 17.9007 127.622C18.1999 126.9 18.1722 126.096 17.8176 125.212C17.4674 124.339 16.9355 123.745 16.2196 123.429C15.5049 123.113 14.6051 123.173 13.5191 123.608L5.76987 126.714L5.01855 124.839L12.75 121.741C13.8593 121.296 14.8588 121.146 15.7509 121.287C16.6429 121.429 17.4087 121.794 18.047 122.38C18.6852 122.966 19.1795 123.693 19.5296 124.566Z" fill="#B0B4D4"/>
<path d="M16.876 117.668L4.04258 121.315L3.49072 119.371L16.3241 115.725L16.876 117.668Z" fill="#B0B4D4"/>
<path d="M10.5486 107.259C10.6151 107.699 10.5685 108.117 10.4101 108.513C10.2516 108.91 10.0089 109.245 9.68424 109.518C9.35956 109.792 8.9706 109.963 8.51848 110.031C8.06636 110.1 7.64194 110.051 7.24412 109.886C6.8463 109.721 6.51385 109.473 6.24568 109.14C5.97752 108.808 5.81019 108.422 5.7437 107.983C5.6761 107.53 5.72154 107.106 5.88 106.709C6.03846 106.313 6.28447 105.98 6.61691 105.712C6.94935 105.444 7.34164 105.276 7.79376 105.207C8.24588 105.139 8.66697 105.185 9.05814 105.344C9.44821 105.504 9.77843 105.75 10.0466 106.082C10.3126 106.415 10.4799 106.807 10.5486 107.259Z" fill="#00D99E"/>
<path d="M13.7974 91.6794C13.7576 93.0002 13.4351 94.1316 12.8278 95.0734C12.2217 96.0153 11.3928 96.7311 10.3423 97.2209C9.29175 97.7107 8.0872 97.9356 6.72751 97.8946C5.35563 97.8536 4.15995 97.5578 3.14046 97.0059C2.12097 96.4541 1.33308 95.6906 0.777901 94.7144C0.222722 93.7382 -0.0354743 92.5902 0.00331062 91.2683C0.0498525 89.7059 0.46873 88.4416 1.26105 87.4731C2.05226 86.5057 3.13824 85.9085 4.51788 85.6824L4.45028 87.9307C3.67015 88.0859 3.04294 88.4482 2.56755 89.0189C2.09326 89.5895 1.84061 90.3641 1.8118 91.3414C1.7719 92.6744 2.19521 93.7426 3.07951 94.5449C3.96491 95.3471 5.20049 95.7715 6.78846 95.8192C8.36312 95.8657 9.61311 95.5156 10.5384 94.7676C11.4637 94.0196 11.9457 92.9792 11.9856 91.6461C12.0145 90.6688 11.8227 89.881 11.4083 89.2837C10.9939 88.6864 10.4154 88.2886 9.67073 88.0881L9.73833 85.8398C11.0515 86.1456 12.0676 86.806 12.7868 87.8188C13.5071 88.8305 13.844 90.1181 13.7974 91.6794Z" fill="#B0B4D4"/>
<path d="M15.3766 78.2782C15.1129 79.5736 14.5965 80.6473 13.8252 81.5028C13.055 82.3571 12.1065 82.9555 10.9795 83.2967C9.85363 83.638 8.6236 83.6735 7.29161 83.402C5.95963 83.1305 4.84152 82.6186 3.93838 81.864C3.03525 81.1094 2.39585 80.1886 2.0213 79.1004C1.64675 78.0123 1.59023 76.8211 1.85397 75.5269C2.11771 74.2326 2.63521 73.1578 3.40537 72.3023C4.17552 71.448 5.12409 70.853 6.24885 70.5183C7.37361 70.1837 8.60254 70.1516 9.93453 70.423C11.2665 70.6945 12.3857 71.2042 13.29 71.9522C14.1942 72.7001 14.8347 73.6187 15.2093 74.7058C15.5849 75.7917 15.6403 76.9829 15.3766 78.2782ZM13.6025 77.917C13.7853 77.0206 13.7454 76.1984 13.4817 75.4515C13.2191 74.7047 12.7525 74.0675 12.081 73.5423C11.4106 73.0171 10.5584 72.6492 9.52451 72.4386C8.49062 72.2281 7.56311 72.2336 6.73976 72.4553C5.91641 72.6769 5.23823 73.0802 4.70411 73.6653C4.16998 74.2504 3.81205 74.9906 3.62921 75.887C3.44637 76.7834 3.48626 77.6078 3.74778 78.3613C4.0093 79.1148 4.47583 79.7509 5.14847 80.2706C5.82111 80.7903 6.67327 81.1548 7.70717 81.3654C8.74106 81.5759 9.66857 81.5737 10.4897 81.3587C11.3119 81.1437 11.9901 80.7404 12.5254 80.1487C13.0606 79.557 13.4196 78.8134 13.6025 77.917Z" fill="#B0B4D4"/>
<path d="M17.061 70.1239L4.62549 65.2893L5.35797 63.4067L17.1441 60.8115L7.78258 57.1715L8.51506 55.2888L20.9495 60.1234L20.217 62.006L8.43084 64.6012L17.7924 68.2412L17.061 70.1239Z" fill="#B0B4D4"/>
<path d="M24.367 54.4179C23.8828 55.2678 23.3087 55.9282 22.6461 56.3992C21.9834 56.8701 21.2742 57.1272 20.5173 57.1715C19.7605 57.2158 18.9981 57.0274 18.2301 56.6042L19.2862 54.7492C19.9112 55.0905 20.5583 55.1736 21.2277 54.9997C21.897 54.8257 22.4488 54.357 22.8832 53.5957C23.2666 52.922 23.404 52.3026 23.2954 51.7364C23.1868 51.1701 22.8788 50.7424 22.3701 50.4532C21.9612 50.2205 21.5789 50.123 21.221 50.1607C20.8631 50.1983 20.5118 50.3269 20.1672 50.5474C19.8225 50.7679 19.4668 51.0449 19.1022 51.3773C18.7366 51.7109 18.3487 52.0599 17.9365 52.4245C17.1286 53.1492 16.3607 53.6001 15.6315 53.7763C14.9024 53.9536 14.1511 53.8218 13.3776 53.3819C12.7193 53.0217 12.2373 52.5464 11.9315 51.9546C11.6245 51.3629 11.4982 50.7069 11.5514 49.9834C11.6046 49.2609 11.8483 48.5185 12.2816 47.7561C12.7094 47.006 13.2224 46.4242 13.8231 46.0131C14.4226 45.602 15.0597 45.376 15.7335 45.335C16.4072 45.2951 17.0732 45.4546 17.7304 45.8148L16.6743 47.6697C16.3762 47.5002 16.0482 47.4159 15.6892 47.4159C15.3301 47.417 14.9777 47.5157 14.632 47.7129C14.2863 47.9101 13.9893 48.2248 13.7444 48.6548C13.4186 49.2011 13.2978 49.7352 13.3798 50.2571C13.4629 50.7801 13.7577 51.1856 14.2663 51.4748C14.7195 51.733 15.1429 51.7984 15.5362 51.671C15.9296 51.5447 16.3396 51.2942 16.763 50.9219C17.1874 50.5496 17.6738 50.1252 18.2235 49.6476C18.7388 49.1811 19.2574 48.7955 19.7793 48.4941C20.3024 48.1927 20.8553 48.0287 21.4404 48.0032C22.0255 47.9777 22.6483 48.1539 23.311 48.5307C23.8961 48.8642 24.3548 49.323 24.6873 49.9069C25.0197 50.4909 25.1737 51.1712 25.1494 51.9469C25.125 52.7214 24.8646 53.5459 24.367 54.4179Z" fill="#B0B4D4"/>
<path d="M30.6467 45.0269C30.0627 45.7804 29.3868 46.3455 28.6199 46.7234C27.8531 47.1013 27.0242 47.2309 26.1355 47.1123C25.2468 46.9938 24.3303 46.5694 23.3862 45.8369L16.8027 40.7342L18.0405 39.1375L24.6384 44.2513C25.5626 44.9671 26.4114 45.2718 27.186 45.1643C27.9606 45.0568 28.6399 44.6269 29.2228 43.8734C29.799 43.1299 30.0417 42.3708 29.953 41.5941C29.8644 40.8173 29.3569 40.0716 28.4327 39.3547L21.8348 34.2409L23.0726 32.6441L29.6561 37.7468C30.6002 38.4782 31.2363 39.2649 31.5654 40.1059C31.8934 40.947 31.9665 41.7913 31.7848 42.639C31.6031 43.4867 31.223 44.2845 30.6467 45.0269Z" fill="#B0B4D4"/>
<path d="M35.1279 39.2627L25.7852 29.7387L27.228 28.3237L35.4504 36.7052L39.7776 32.4612L40.8991 33.6037L35.1279 39.2627Z" fill="#B0B4D4"/>
<path d="M43.1045 31.864L35.7797 22.7378L32.7024 25.2077L31.6763 23.929L39.3911 17.7371L40.4173 19.0158L37.3555 21.4735L44.6803 30.5997L43.1045 31.864Z" fill="#B0B4D4"/>
<path d="M49.1351 27.3519L41.7837 16.219L43.4692 15.1054L50.8206 26.2383L49.1351 27.3519Z" fill="#B0B4D4"/>
<path d="M52.7407 24.8421L46.6304 12.9823L48.4267 12.057L58.9739 17.921L54.373 8.99208L56.1692 8.06683L62.2806 19.9266L60.4843 20.8519L49.9371 14.9879L54.5381 23.9168L52.7407 24.8421Z" fill="#B0B4D4"/>
<path d="M69.8747 17.5033C68.6757 17.8856 67.542 17.9465 66.4727 17.6872C65.4033 17.4279 64.4636 16.8872 63.6547 16.065C62.8457 15.2428 62.2329 14.1779 61.8163 12.8704C61.4029 11.575 61.2932 10.3506 61.4849 9.19488C61.6766 8.04026 62.152 7.0319 62.9111 6.16982C63.6702 5.30773 64.6908 4.6728 65.974 4.26281C67.4268 3.79963 68.7488 3.76528 69.9412 4.15865C71.1335 4.55202 72.0721 5.31992 72.7558 6.46235L70.5761 7.15712C70.1661 6.54102 69.6154 6.12993 68.9228 5.92382C68.2302 5.71772 67.4357 5.75761 66.5403 6.04349C65.2083 6.46789 64.2985 7.23136 63.8098 8.3339C63.3211 9.43644 63.3178 10.7451 63.801 12.2576C64.283 13.7713 65.0343 14.8317 66.056 15.44C67.0766 16.0484 68.2102 16.1536 69.458 15.7558C70.7169 15.3547 71.5502 14.6954 71.958 13.779C72.3658 12.8626 72.4356 11.7933 72.1663 10.5722L68.7156 11.6726L68.2413 10.1833L73.6346 8.46355L75.8343 15.3636L74.0723 15.9254L73.3121 14.107C73.1005 14.9082 72.7315 15.5918 72.2062 16.1603C71.6809 16.7276 70.9041 17.1753 69.8747 17.5033Z" fill="#B0B4D4"/>
<path d="M85.0853 9.25471C84.6431 9.30901 84.2265 9.25139 83.8353 9.08185C83.443 8.91231 83.115 8.66189 82.8502 8.32946C82.5853 7.99704 82.4247 7.60367 82.3692 7.15046C82.3138 6.69615 82.3726 6.27286 82.5488 5.8806C82.7238 5.48834 82.982 5.16146 83.3211 4.90216C83.6602 4.64287 84.0503 4.48553 84.4924 4.43123C84.9467 4.37583 85.3689 4.43234 85.7612 4.60187C86.1535 4.77141 86.4793 5.02516 86.7386 5.36534C86.9979 5.70441 87.1552 6.10111 87.2117 6.55542C87.2683 7.00974 87.2106 7.4297 87.04 7.81531C86.8693 8.20092 86.6156 8.52338 86.2754 8.78267C85.9363 9.04085 85.5396 9.1982 85.0853 9.25471Z" fill="#00D99E"/>
</svg>
