<svg width="1920" height="3498" viewBox="0 0 1920 3498" fill="none" xmlns="http://www.w3.org/2000/svg">
<g filter="url(#filter0_f_28_39)">
<path d="M1326 -5.5C1326 -5.5 15 479 1 1003.5C-255.26 1003.5 -318 397.26 -318 141C-318 -115.26 -110.26 -323 146 -323C402.26 -323 1326 -261.76 1326 -5.5Z" fill="#7727E1" fill-opacity="0.4"/>
</g>
<g filter="url(#filter1_f_28_39)">
<path d="M-123.075 1587.5V1028H-91.0752C-41.5752 1028 95.4248 1168 255.425 1246.5C415.425 1325 514.925 1308 663.425 1380.5C782.225 1438.5 813.925 1523.33 814.925 1558.5C817.758 1602.17 806.525 1695.3 738.925 1718.5C654.425 1747.5 248 2243.5 -22.9999 2240.5C-239.8 2238.1 -130.909 1630.17 -123.075 1587.5Z" fill="#7727E1" fill-opacity="0.4"/>
</g>
<g filter="url(#filter2_f_28_39)">
<path d="M2045.39 3672.01L2045.39 4231.51L2013.39 4231.51C1963.89 4231.51 1826.89 4091.51 1666.89 4013.01C1506.89 3934.51 1407.39 3951.51 1258.89 3879.01C1140.09 3821.01 1108.39 3736.18 1107.39 3701.01C1104.56 3657.35 1115.79 3564.21 1183.39 3541.01C1267.89 3512.01 1674.32 3016.01 1945.32 3019.01C2162.12 3021.41 2053.23 3629.35 2045.39 3672.01Z" fill="#7727E1" fill-opacity="0.4"/>
</g>
<g filter="url(#filter3_f_28_39)">
<circle cx="221" cy="542" r="209" fill="#1BF1AD" fill-opacity="0.5"/>
</g>
<g filter="url(#filter4_f_28_39)">
<circle cx="1594.5" cy="928.5" r="255.5" fill="#1BF1AD" fill-opacity="0.5"/>
</g>
<g filter="url(#filter5_f_28_39)">
<path d="M1473.35 1722.38C1608.09 1620.83 1837.26 1439.82 1935 1362V2681C1890.09 2612.75 1687.94 2526.97 1633.57 2505.04C1621.52 2500.18 1549.15 2464.98 1144.23 2318.41C763.109 2180.46 897.946 2077.61 1024.96 1997.22C1118.28 1947.92 1338.61 1823.93 1473.35 1722.38Z" fill="#7727E1" fill-opacity="0.4"/>
</g>
<g filter="url(#filter6_f_28_39)">
<circle cx="1782.5" cy="2271.5" r="223.5" fill="#1BF1AD" fill-opacity="0.5"/>
</g>
<g filter="url(#filter7_f_28_39)">
<path d="M1809.5 -13H1921H1958L2006 1567C1987.17 1608.33 1943.8 1640.1 1921 1436.5C1892.5 1182 1696.5 1160.5 1560.5 1038.5C1424.5 916.5 1323.5 1049 1095.5 931C913.1 836.6 1045.5 740.667 1134.5 704.5C1210.5 661 1378.8 546.8 1444 438C1509.2 329.2 1714.83 92 1809.5 -13Z" fill="#7727E1" fill-opacity="0.4"/>
</g>
<g filter="url(#filter8_f_28_39)">
<circle cx="170" cy="1761" r="248" fill="#1BF1AD" fill-opacity="0.5"/>
</g>
<g filter="url(#filter9_f_28_39)">
<ellipse cx="1555.5" cy="3887.5" rx="219.5" ry="219.5" transform="rotate(-180 1555.5 3887.5)" fill="#1BF1AD" fill-opacity="0.5"/>
</g>
<g filter="url(#filter10_f_28_39)">
<path d="M438.5 2618.5C153.7 2609.3 26.5 2450.33 -1.49995 2372C-10.3333 2798.67 -22.7 3615.1 -1.49995 3467.5C25 3283 693.5 3090.5 848 3052C1002.5 3013.5 1014.5 3004.5 1062 2909.5C1100 2833.5 1016.5 2760.83 970 2734C911.5 2699.33 723.3 2627.7 438.5 2618.5Z" fill="#7727E1" fill-opacity="0.4"/>
</g>
<g filter="url(#filter11_f_28_39)">
<circle cx="256.5" cy="3106.5" r="189.5" fill="#1BF1AD" fill-opacity="0.5"/>
</g>
<defs>
<filter id="filter0_f_28_39" x="-712" y="-717" width="2432" height="2114.5" filterUnits="userSpaceOnUse" color-interpolation-filters="sRGB">
<feFlood flood-opacity="0" result="BackgroundImageFix"/>
<feBlend mode="normal" in="SourceGraphic" in2="BackgroundImageFix" result="shape"/>
<feGaussianBlur stdDeviation="197" result="effect1_foregroundBlur_28_39"/>
</filter>
<filter id="filter1_f_28_39" x="-551.307" y="634" width="1760.62" height="2000.51" filterUnits="userSpaceOnUse" color-interpolation-filters="sRGB">
<feFlood flood-opacity="0" result="BackgroundImageFix"/>
<feBlend mode="normal" in="SourceGraphic" in2="BackgroundImageFix" result="shape"/>
<feGaussianBlur stdDeviation="197" result="effect1_foregroundBlur_28_39"/>
</filter>
<filter id="filter2_f_28_39" x="713" y="2625" width="1760.62" height="2000.51" filterUnits="userSpaceOnUse" color-interpolation-filters="sRGB">
<feFlood flood-opacity="0" result="BackgroundImageFix"/>
<feBlend mode="normal" in="SourceGraphic" in2="BackgroundImageFix" result="shape"/>
<feGaussianBlur stdDeviation="197" result="effect1_foregroundBlur_28_39"/>
</filter>
<filter id="filter3_f_28_39" x="-382" y="-61" width="1206" height="1206" filterUnits="userSpaceOnUse" color-interpolation-filters="sRGB">
<feFlood flood-opacity="0" result="BackgroundImageFix"/>
<feBlend mode="normal" in="SourceGraphic" in2="BackgroundImageFix" result="shape"/>
<feGaussianBlur stdDeviation="197" result="effect1_foregroundBlur_28_39"/>
</filter>
<filter id="filter4_f_28_39" x="945" y="279" width="1299" height="1299" filterUnits="userSpaceOnUse" color-interpolation-filters="sRGB">
<feFlood flood-opacity="0" result="BackgroundImageFix"/>
<feBlend mode="normal" in="SourceGraphic" in2="BackgroundImageFix" result="shape"/>
<feGaussianBlur stdDeviation="197" result="effect1_foregroundBlur_28_39"/>
</filter>
<filter id="filter5_f_28_39" x="500" y="968" width="1829" height="2107" filterUnits="userSpaceOnUse" color-interpolation-filters="sRGB">
<feFlood flood-opacity="0" result="BackgroundImageFix"/>
<feBlend mode="normal" in="SourceGraphic" in2="BackgroundImageFix" result="shape"/>
<feGaussianBlur stdDeviation="197" result="effect1_foregroundBlur_28_39"/>
</filter>
<filter id="filter6_f_28_39" x="1165" y="1654" width="1235" height="1235" filterUnits="userSpaceOnUse" color-interpolation-filters="sRGB">
<feFlood flood-opacity="0" result="BackgroundImageFix"/>
<feBlend mode="normal" in="SourceGraphic" in2="BackgroundImageFix" result="shape"/>
<feGaussianBlur stdDeviation="197" result="effect1_foregroundBlur_28_39"/>
</filter>
<filter id="filter7_f_28_39" x="610.171" y="-407" width="1789.83" height="2398.6" filterUnits="userSpaceOnUse" color-interpolation-filters="sRGB">
<feFlood flood-opacity="0" result="BackgroundImageFix"/>
<feBlend mode="normal" in="SourceGraphic" in2="BackgroundImageFix" result="shape"/>
<feGaussianBlur stdDeviation="197" result="effect1_foregroundBlur_28_39"/>
</filter>
<filter id="filter8_f_28_39" x="-472" y="1119" width="1284" height="1284" filterUnits="userSpaceOnUse" color-interpolation-filters="sRGB">
<feFlood flood-opacity="0" result="BackgroundImageFix"/>
<feBlend mode="normal" in="SourceGraphic" in2="BackgroundImageFix" result="shape"/>
<feGaussianBlur stdDeviation="197" result="effect1_foregroundBlur_28_39"/>
</filter>
<filter id="filter9_f_28_39" x="942" y="3274" width="1227" height="1227" filterUnits="userSpaceOnUse" color-interpolation-filters="sRGB">
<feFlood flood-opacity="0" result="BackgroundImageFix"/>
<feBlend mode="normal" in="SourceGraphic" in2="BackgroundImageFix" result="shape"/>
<feGaussianBlur stdDeviation="197" result="effect1_foregroundBlur_28_39"/>
</filter>
<filter id="filter10_f_28_39" x="-407.206" y="1978" width="1872.84" height="1901.11" filterUnits="userSpaceOnUse" color-interpolation-filters="sRGB">
<feFlood flood-opacity="0" result="BackgroundImageFix"/>
<feBlend mode="normal" in="SourceGraphic" in2="BackgroundImageFix" result="shape"/>
<feGaussianBlur stdDeviation="197" result="effect1_foregroundBlur_28_39"/>
</filter>
<filter id="filter11_f_28_39" x="-327" y="2523" width="1167" height="1167" filterUnits="userSpaceOnUse" color-interpolation-filters="sRGB">
<feFlood flood-opacity="0" result="BackgroundImageFix"/>
<feBlend mode="normal" in="SourceGraphic" in2="BackgroundImageFix" result="shape"/>
<feGaussianBlur stdDeviation="197" result="effect1_foregroundBlur_28_39"/>
</filter>
</defs>
</svg>
