<svg width="100" height="100" viewBox="0 0 100 100" fill="none" xmlns="http://www.w3.org/2000/svg">
<rect width="100" height="100" rx="8" fill="#B0B4D4" fill-opacity="0.05"/>
<g clip-path="url(#clip0_196_405)">
<path d="M60.2981 46.8631C58.0081 45.7337 55.0123 44.2554 55.0123 44.2554C51.6715 42.6074 51.4719 42.5087 51.409 42.4855C51.4018 42.4829 51.394 42.4797 51.3828 42.4752L51.2205 42.4107H49.7763L49.6139 42.4752C49.5988 42.4816 49.5897 42.4849 49.5805 42.4881C49.5327 42.5048 49.1982 42.67 45.9916 44.2522C45.9916 44.2522 43.0115 45.7228 40.6986 46.8631C39.8947 47.2598 39.3951 48.0564 39.3951 48.9426V58.3642C39.3951 58.49 39.4069 58.6216 39.4298 58.7557L39.46 58.9305L40.2226 60.1399L40.3595 60.2379C40.3758 60.2502 40.3896 60.2599 40.404 60.2715C40.5212 60.3592 40.5912 60.394 44.2836 62.2129L44.3242 62.2329C45.5746 62.8489 47.2348 63.6668 49.4417 64.7555C49.7658 64.9155 50.1317 65 50.5003 65C50.8663 65 51.2309 64.9155 51.555 64.7555C53.7691 63.6636 55.4326 62.8438 56.6843 62.2271L56.7204 62.2097C60.4062 60.394 60.4769 60.3592 60.5954 60.2689C60.6078 60.2592 60.6215 60.2495 60.6386 60.2373L60.7754 60.1386L61.5374 58.9292L61.5669 58.7544C61.5898 58.6209 61.6016 58.49 61.6016 58.3642V48.9426C61.6016 48.0564 61.1021 47.2598 60.2981 46.8631ZM49.7763 63.3288L41.3454 59.1711C41.2079 59.1034 41.0881 59.0002 40.9991 58.8718L40.9925 58.8615C40.9866 58.8518 40.9801 58.8421 40.9722 58.8305L40.9644 58.8189C40.8826 58.6809 40.8393 58.5235 40.8393 58.3642V49.0974L49.7763 53.5054V63.3288ZM50.4984 52.2702L41.731 47.9455L50.0885 43.8232C50.2149 43.7607 50.3563 43.7278 50.4984 43.7278C50.6404 43.7278 50.7818 43.7607 50.9082 43.8232L59.2657 47.9455L50.4984 52.2702ZM59.6513 59.1711L51.2205 63.3288V53.5054L60.1567 49.0974L60.1574 58.3642C60.1574 58.708 59.9636 59.0169 59.6513 59.1711Z" fill="#B0B4D4"/>
<path d="M66.7911 62.7399C66.5843 63.0927 66.2497 63.3456 65.8497 63.4514L62.4474 64.3492C62.3859 64.366 62.323 64.3737 62.2595 64.3737C61.9342 64.3737 61.6474 64.157 61.563 63.8467C61.5132 63.6629 61.5387 63.4707 61.635 63.3062C61.7312 63.1417 61.887 63.0244 62.0736 62.9747L64.5921 62.3097L60.7754 60.1386L61.5374 58.9292L65.3142 61.0777L64.6392 58.5964C64.5895 58.4126 64.615 58.221 64.7113 58.0565C64.8082 57.8921 64.964 57.774 65.1499 57.725C65.2114 57.7089 65.2749 57.7005 65.3378 57.7005C65.6632 57.7005 65.9499 57.9172 66.0343 58.2281L66.9463 61.5802C67.0537 61.9749 66.9987 62.3865 66.7911 62.7399Z" fill="#00D99E"/>
<path d="M54.2968 39.4037C54.2968 39.5933 54.2221 39.772 54.0853 39.9068C53.9492 40.0409 53.7678 40.1151 53.5747 40.1151C53.3822 40.1151 53.2009 40.0409 53.064 39.9068L51.2205 38.0898V42.4107H49.7763V38.0898L47.9327 39.9068C47.7959 40.0409 47.6145 40.1151 47.4221 40.1151C47.2289 40.1151 47.0476 40.0409 46.9114 39.9068C46.7746 39.772 46.7 39.5933 46.7 39.4037C46.7 39.2134 46.7746 39.0347 46.9114 38.9006L49.4018 36.4463C49.6944 36.1587 50.0833 36 50.4984 36C50.9134 36 51.3023 36.1587 51.5949 36.4463L54.0853 38.9006C54.2221 39.0347 54.2968 39.2134 54.2968 39.4037Z" fill="#00D99E"/>
<path d="M39.3644 63.3062C39.4612 63.4713 39.4868 63.6629 39.4364 63.8467C39.3519 64.157 39.0658 64.3737 38.7398 64.3737C38.6769 64.3737 38.6134 64.366 38.5519 64.3492L35.1502 63.4514C34.7496 63.3456 34.415 63.0927 34.2082 62.7399C34.0006 62.3865 33.9463 61.9743 34.0537 61.5802L34.965 58.2281C35.0494 57.9172 35.3362 57.7005 35.6622 57.7005C35.7244 57.7005 35.7879 57.7089 35.8494 57.725C36.0353 57.774 36.1912 57.8921 36.2874 58.0565C36.3843 58.2217 36.4098 58.4132 36.3601 58.5964L35.6851 61.0777L39.4599 58.9305L40.2226 60.1399L36.4072 62.3103L38.9257 62.9753C39.1123 63.0244 39.2681 63.1417 39.3644 63.3062Z" fill="#00D99E"/>
</g>
<defs>
<clipPath id="clip0_196_405">
<rect width="33" height="29" fill="white" transform="translate(34 36)"/>
</clipPath>
</defs>
</svg>
