<svg width="77" height="77" viewBox="0 0 77 77" fill="none" xmlns="http://www.w3.org/2000/svg">
<rect width="77" height="77" rx="8" fill="#B0B4D4" fill-opacity="0.05"/>
<path d="M27.3663 42.6765L28.0942 42.4957L27.3663 42.6765ZM27.3663 35.3235L28.0942 35.5043L27.3663 35.3235ZM48.6337 35.3235L49.3616 35.1428L48.6337 35.3235ZM48.6337 42.6765L49.3616 42.8572L48.6337 42.6765ZM41.6349 49.1021L41.4726 48.3699H41.4726L41.6349 49.1021ZM34.3652 49.1021L34.2029 49.8343L34.2029 49.8344L34.3652 49.1021ZM34.3652 28.8979L34.2029 28.1657L34.3652 28.8979ZM41.6349 28.8979L41.4726 29.6301V29.6301L41.6349 28.8979ZM33.8357 48.9848L33.9979 48.2525H33.9979L33.8357 48.9848ZM42.1644 48.9848L42.3266 49.717H42.3266L42.1644 48.9848ZM42.1644 29.0152L42.3266 28.283V28.283L42.1644 29.0152ZM33.8357 29.0152L33.9979 29.7475L33.8357 29.0152ZM33.9979 29.7475L34.5274 29.6301L34.2029 28.1657L33.6734 28.283L33.9979 29.7475ZM41.4726 29.6301L42.0021 29.7475L42.3266 28.283L41.7971 28.1657L41.4726 29.6301ZM42.0021 48.2525L41.4726 48.3699L41.7971 49.8344L42.3266 49.717L42.0021 48.2525ZM34.5274 48.3699L33.9979 48.2525L33.6734 49.717L34.2029 49.8343L34.5274 48.3699ZM28.0942 42.4957C27.5242 40.2001 27.5242 37.7999 28.0942 35.5043L26.6384 35.1428C26.0094 37.6758 26.0094 40.3242 26.6384 42.8572L28.0942 42.4957ZM47.9058 35.5043C48.4759 37.7999 48.4759 40.2001 47.9058 42.4957L49.3616 42.8572C49.9906 40.3242 49.9906 37.6758 49.3616 35.1428L47.9058 35.5043ZM41.4726 48.3699C39.1853 48.8767 36.8148 48.8767 34.5274 48.3699L34.2029 49.8344C36.704 50.3885 39.296 50.3885 41.7971 49.8344L41.4726 48.3699ZM34.5274 29.6301C36.8148 29.1233 39.1853 29.1233 41.4726 29.6301L41.7971 28.1657C39.296 27.6115 36.704 27.6114 34.2029 28.1657L34.5274 29.6301ZM33.9979 48.2525C31.0973 47.6098 28.8104 45.3799 28.0942 42.4957L26.6384 42.8572C27.4918 46.2938 30.2168 48.9511 33.6734 49.717L33.9979 48.2525ZM42.3266 49.717C45.7833 48.9511 48.5083 46.2938 49.3616 42.8572L47.9058 42.4957C47.1897 45.3799 44.9027 47.6098 42.0021 48.2525L42.3266 49.717ZM42.0021 29.7475C44.9028 30.3902 47.1897 32.6201 47.9058 35.5043L49.3616 35.1428C48.5083 31.7062 45.7833 29.0489 42.3266 28.283L42.0021 29.7475ZM33.6734 28.283C30.2168 29.0489 27.4918 31.7062 26.6384 35.1428L28.0942 35.5043C28.8104 32.6201 31.0973 30.3902 33.9979 29.7475L33.6734 28.283Z" fill="#00D99E"/>
<path d="M29.4553 31.9735C29.1182 31.7327 28.6498 31.8107 28.409 32.1477C28.1682 32.4848 28.2463 32.9532 28.5833 33.194L29.4553 31.9735ZM35.7629 37.4016L35.3269 38.0119L35.7629 37.4016ZM40.2371 37.4016L39.8011 36.7914L40.2371 37.4016ZM47.4167 33.194C47.7537 32.9532 47.8317 32.4848 47.5909 32.1477C47.3502 31.8107 46.8817 31.7327 46.5447 31.9735L47.4167 33.194ZM28.5833 33.194L35.3269 38.0119L36.1989 36.7914L29.4553 31.9735L28.5833 33.194ZM40.6731 38.0119L47.4167 33.194L46.5447 31.9735L39.8011 36.7914L40.6731 38.0119ZM35.3269 38.0119C36.9259 39.1543 39.074 39.1543 40.6731 38.0119L39.8011 36.7914C38.7237 37.5612 37.2763 37.5612 36.1989 36.7914L35.3269 38.0119Z" fill="#00D99E"/>
<path d="M27.3663 42.6765L28.0942 42.4957L27.3663 42.6765ZM27.3663 35.3235L28.0942 35.5043L27.3663 35.3235ZM48.6337 35.3235L49.3616 35.1428L48.6337 35.3235ZM47.9058 42.4957C47.806 42.8977 48.051 43.3045 48.453 43.4044C48.855 43.5042 49.2618 43.2592 49.3616 42.8572L47.9058 42.4957ZM41.6349 49.1021L41.4726 48.3699H41.4726L41.6349 49.1021ZM34.3652 49.1021L34.2029 49.8343L34.2029 49.8344L34.3652 49.1021ZM34.3652 28.8979L34.2029 28.1657L34.3652 28.8979ZM41.6349 28.8979L41.4726 29.6301V29.6301L41.6349 28.8979ZM33.8357 48.9848L33.9979 48.2525H33.9979L33.8357 48.9848ZM42.3266 49.717C42.731 49.6274 42.9862 49.2269 42.8966 48.8225C42.807 48.4181 42.4065 48.1629 42.0021 48.2525L42.3266 49.717ZM42.1644 29.0152L42.3266 28.283V28.283L42.1644 29.0152ZM33.8357 29.0152L33.9979 29.7475L33.8357 29.0152ZM33.9979 29.7475L34.5274 29.6301L34.2029 28.1657L33.6734 28.283L33.9979 29.7475ZM41.4726 29.6301L42.0021 29.7475L42.3266 28.283L41.7971 28.1657L41.4726 29.6301ZM42.0021 48.2525L41.4726 48.3699L41.7971 49.8344L42.3266 49.717L42.0021 48.2525ZM34.5274 48.3699L33.9979 48.2525L33.6734 49.717L34.2029 49.8343L34.5274 48.3699ZM28.0942 42.4957C27.5242 40.2001 27.5242 37.7999 28.0942 35.5043L26.6384 35.1428C26.0094 37.6758 26.0094 40.3242 26.6384 42.8572L28.0942 42.4957ZM47.9058 35.5043C48.4759 37.7999 48.4759 40.2001 47.9058 42.4957L49.3616 42.8572C49.9906 40.3242 49.9906 37.6758 49.3616 35.1428L47.9058 35.5043ZM41.4726 48.3699C39.1853 48.8767 36.8148 48.8767 34.5274 48.3699L34.2029 49.8344C36.704 50.3885 39.296 50.3885 41.7971 49.8344L41.4726 48.3699ZM34.5274 29.6301C36.8148 29.1233 39.1853 29.1233 41.4726 29.6301L41.7971 28.1657C39.296 27.6115 36.704 27.6114 34.2029 28.1657L34.5274 29.6301ZM33.9979 48.2525C31.0973 47.6098 28.8104 45.3799 28.0942 42.4957L26.6384 42.8572C27.4918 46.2938 30.2168 48.9511 33.6734 49.717L33.9979 48.2525ZM42.0021 29.7475C44.9028 30.3902 47.1897 32.6201 47.9058 35.5043L49.3616 35.1428C48.5083 31.7062 45.7833 29.0489 42.3266 28.283L42.0021 29.7475ZM33.6734 28.283C30.2168 29.0489 27.4918 31.7062 26.6384 35.1428L28.0942 35.5043C28.8104 32.6201 31.0973 30.3902 33.9979 29.7475L33.6734 28.283Z" fill="#B0B4D4"/>
</svg>
