<svg width="23" height="23" viewBox="0 0 23 23" fill="none" xmlns="http://www.w3.org/2000/svg">
<path d="M16.332 0H6.16803C2.76697 0 0 2.76697 0 6.16808V16.332C0 19.7331 2.76697 22.5 6.16803 22.5H16.332C19.7331 22.5 22.5 19.733 22.5 16.332V6.16808C22.5 2.76697 19.7331 0 16.332 0ZM11.25 17.4213C7.8471 17.4213 5.07872 14.6529 5.07872 11.25C5.07872 7.8471 7.84714 5.07876 11.25 5.07876C14.6529 5.07876 17.4213 7.84714 17.4213 11.25C17.4213 14.6529 14.6529 17.4213 11.25 17.4213ZM17.7904 6.58459C16.7566 6.58459 15.9155 5.74348 15.9155 4.70962C15.9155 3.67576 16.7566 2.8346 17.7904 2.8346C18.8243 2.8346 19.6654 3.67572 19.6654 4.70958C19.6654 5.74343 18.8243 6.58459 17.7904 6.58459Z" fill="#B0B4D4"/>
</svg>
