<svg width="22" height="23" viewBox="0 0 22 23" fill="none" xmlns="http://www.w3.org/2000/svg">
<path d="M19.8438 0H2.59375C1.40781 0 0.4375 1.0125 0.4375 2.25V20.25C0.4375 21.4875 1.40781 22.5 2.59375 22.5H19.8438C21.0297 22.5 22 21.4875 22 20.25V2.25C22 1.0125 21.0297 0 19.8438 0ZM6.90625 19.125H3.67188V9H6.90625V19.125ZM5.28906 7.0875C4.21094 7.0875 3.34844 6.1875 3.34844 5.0625C3.34844 3.9375 4.21094 3.0375 5.28906 3.0375C6.36719 3.0375 7.22969 3.9375 7.22969 5.0625C7.22969 6.1875 6.36719 7.0875 5.28906 7.0875ZM18.7656 19.125H15.5312V13.1625C15.5312 12.2625 14.7766 11.475 13.9141 11.475C13.0516 11.475 12.2969 12.2625 12.2969 13.1625V19.125H9.0625V9H12.2969V10.35C12.8359 9.45 14.0219 8.775 14.9922 8.775C17.0406 8.775 18.7656 10.575 18.7656 12.7125V19.125Z" fill="#B0B4D4"/>
</svg>
