<svg width="375" height="5179" viewBox="0 0 375 5179" fill="none" xmlns="http://www.w3.org/2000/svg">
<g filter="url(#filter0_f_242_4441)">
<path d="M296 70.8828C296 70.8828 -58.0657 272.134 -61.8467 490C-131.056 490 -148 238.181 -148 131.736C-148 25.2907 -91.8951 -61 -22.6861 -61C46.5228 -61 296 -35.5623 296 70.8828Z" fill="#7727E1" fill-opacity="0.4"/>
</g>
<g filter="url(#filter1_f_242_4441)">
<path d="M-95.7436 734.565V502H-87.0907C-73.7058 502 -36.6607 560.193 6.60373 592.823C49.8681 625.453 76.7731 618.386 116.928 648.522C149.052 672.631 157.623 707.893 157.894 722.511C158.66 740.661 155.622 779.374 137.343 789.017C114.494 801.071 4.59606 1007.24 -68.683 1005.99C-127.306 1005 -97.8618 752.3 -95.7436 734.565Z" fill="#7727E1" fill-opacity="0.4"/>
</g>
<g filter="url(#filter2_f_242_4441)">
<path d="M-95.7436 3029.56V2797H-87.0907C-73.7058 2797 -36.6607 2855.19 6.60373 2887.82C49.8681 2920.45 76.7731 2913.39 116.928 2943.52C149.052 2967.63 157.623 3002.89 157.894 3017.51C158.66 3035.66 155.622 3074.37 137.343 3084.02C114.494 3096.07 4.59606 3302.24 -68.683 3300.99C-127.306 3300 -97.8618 3047.3 -95.7436 3029.56Z" fill="#7727E1" fill-opacity="0.4"/>
</g>
<g filter="url(#filter3_f_242_4441)">
<path d="M489.779 1602.44L489.779 1835L481.159 1835C467.825 1835 430.921 1776.81 387.821 1744.18C344.721 1711.55 317.918 1718.61 277.916 1688.48C245.914 1664.37 237.375 1629.11 237.106 1614.49C236.342 1596.34 239.368 1557.63 257.578 1547.98C280.34 1535.93 389.821 1329.76 462.821 1331.01C521.221 1332 491.889 1584.7 489.779 1602.44Z" fill="#7727E1" fill-opacity="0.4"/>
</g>
<g filter="url(#filter4_f_242_4441)">
<path d="M489.779 3897.44L489.779 4130L481.159 4130C467.825 4130 430.921 4071.81 387.821 4039.18C344.721 4006.55 317.918 4013.61 277.916 3983.48C245.914 3959.37 237.375 3924.11 237.106 3909.49C236.342 3891.34 239.368 3852.63 257.578 3842.98C280.34 3830.93 389.821 3624.76 462.821 3626.01C521.221 3627 491.889 3879.7 489.779 3897.44Z" fill="#7727E1" fill-opacity="0.4"/>
</g>
<g filter="url(#filter5_f_242_4441)">
<ellipse cx="-2.5" cy="299.5" rx="56.5" ry="87.5" fill="#1BF1AD" fill-opacity="0.5"/>
</g>
<g filter="url(#filter6_f_242_4441)">
<ellipse cx="368" cy="459.5" rx="69" ry="106.5" fill="#1BF1AD" fill-opacity="0.5"/>
</g>
<g filter="url(#filter7_f_242_4441)">
<ellipse cx="368" cy="2754.5" rx="69" ry="106.5" fill="#1BF1AD" fill-opacity="0.5"/>
</g>
<g filter="url(#filter8_f_242_4441)">
<ellipse cx="368" cy="2257.5" rx="69" ry="105.5" fill="#1BF1AD" fill-opacity="0.5"/>
</g>
<g filter="url(#filter9_f_242_4441)">
<ellipse cx="368" cy="4552.5" rx="69" ry="105.5" fill="#1BF1AD" fill-opacity="0.5"/>
</g>
<g filter="url(#filter10_f_242_4441)">
<path d="M335.386 789.272C371.756 746.929 433.616 671.448 460 639V1189C447.876 1160.54 393.31 1124.77 378.633 1115.63C375.381 1113.6 355.846 1098.92 246.546 1037.81C143.668 980.282 180.065 937.396 214.349 903.874C239.54 883.317 299.015 831.615 335.386 789.272Z" fill="#7727E1" fill-opacity="0.4"/>
</g>
<g filter="url(#filter11_f_242_4441)">
<path d="M335.386 3084.27C371.756 3041.93 433.616 2966.45 460 2934V3484C447.876 3455.54 393.31 3419.77 378.633 3410.63C375.381 3408.6 355.846 3393.92 246.546 3332.81C143.668 3275.28 180.065 3232.4 214.349 3198.87C239.54 3178.32 299.015 3126.62 335.386 3084.27Z" fill="#7727E1" fill-opacity="0.4"/>
</g>
<g filter="url(#filter12_f_242_4441)">
<ellipse cx="419" cy="1019" rx="60" ry="93" fill="#1BF1AD" fill-opacity="0.5"/>
</g>
<g filter="url(#filter13_f_242_4441)">
<ellipse cx="419" cy="3314" rx="60" ry="93" fill="#1BF1AD" fill-opacity="0.5"/>
</g>
<g filter="url(#filter14_f_242_4441)">
<path d="M426.042 68H456.092H466.064L479 725.27C473.924 742.464 462.237 755.679 456.092 670.983C448.411 565.112 395.588 556.168 358.935 505.417C322.282 454.666 295.061 509.785 233.614 460.698C184.456 421.428 220.138 381.52 244.125 366.475C264.607 348.38 309.965 300.873 327.537 255.613C345.109 210.353 400.529 111.679 426.042 68Z" fill="#7727E1" fill-opacity="0.4"/>
</g>
<g filter="url(#filter15_f_242_4441)">
<path d="M426.042 2363H456.092H466.064L479 3020.27C473.924 3037.46 462.237 3050.68 456.092 2965.98C448.411 2860.11 395.588 2851.17 358.935 2800.42C322.282 2749.67 295.061 2804.79 233.614 2755.7C184.456 2716.43 220.138 2676.52 244.125 2661.48C264.607 2643.38 309.965 2595.87 327.537 2550.61C345.109 2505.35 400.529 2406.68 426.042 2363Z" fill="#7727E1" fill-opacity="0.4"/>
</g>
<g filter="url(#filter16_f_242_4441)">
<path d="M426.042 1865H456.092H466.064L479 2523.25C473.924 2540.47 462.237 2553.71 456.092 2468.88C448.411 2362.85 395.588 2353.9 358.935 2303.07C322.282 2252.24 295.061 2307.44 233.614 2258.28C184.456 2218.96 220.138 2178.99 244.125 2163.92C264.607 2145.8 309.965 2098.22 327.537 2052.89C345.109 2007.57 400.529 1908.74 426.042 1865Z" fill="#7727E1" fill-opacity="0.4"/>
</g>
<g filter="url(#filter17_f_242_4441)">
<path d="M426.042 4160H456.092H466.064L479 4818.25C473.924 4835.47 462.237 4848.71 456.092 4763.88C448.411 4657.85 395.588 4648.9 358.935 4598.07C322.282 4547.24 295.061 4602.44 233.614 4553.28C184.456 4513.96 220.138 4473.99 244.125 4458.92C264.607 4440.8 309.965 4393.22 327.537 4347.89C345.109 4302.57 400.529 4203.74 426.042 4160Z" fill="#7727E1" fill-opacity="0.4"/>
</g>
<g filter="url(#filter18_f_242_4441)">
<ellipse cx="-16" cy="806.5" rx="67" ry="103.5" fill="#1BF1AD" fill-opacity="0.5"/>
</g>
<g filter="url(#filter19_f_242_4441)">
<ellipse cx="-16" cy="3101.5" rx="67" ry="103.5" fill="#1BF1AD" fill-opacity="0.5"/>
</g>
<g filter="url(#filter20_f_242_4441)">
<ellipse cx="357" cy="1691.5" rx="59" ry="91.5" transform="rotate(-180 357 1691.5)" fill="#1BF1AD" fill-opacity="0.5"/>
</g>
<g filter="url(#filter21_f_242_4441)">
<ellipse cx="357" cy="3986.5" rx="59" ry="91.5" transform="rotate(-180 357 3986.5)" fill="#1BF1AD" fill-opacity="0.5"/>
</g>
<g filter="url(#filter22_f_242_4441)">
<path d="M56.5826 1162.53C-20.0751 1158.71 -54.3127 1092.58 -61.8493 1060C-64.2269 1237.47 -67.5555 1577.07 -61.8493 1515.67C-54.7164 1438.93 125.219 1358.86 166.805 1342.85C208.391 1326.83 211.621 1323.09 224.406 1283.57C234.634 1251.96 212.159 1221.74 199.643 1210.57C183.897 1196.15 133.24 1166.36 56.5826 1162.53Z" fill="#7727E1" fill-opacity="0.4"/>
</g>
<g filter="url(#filter23_f_242_4441)">
<path d="M56.5826 3457.53C-20.0751 3453.71 -54.3127 3387.58 -61.8493 3355C-64.2269 3532.47 -67.5555 3872.07 -61.8493 3810.67C-54.7164 3733.93 125.219 3653.86 166.805 3637.85C208.391 3621.83 211.621 3618.09 224.406 3578.57C234.634 3546.96 212.159 3516.74 199.643 3505.57C183.897 3491.15 133.24 3461.36 56.5826 3457.53Z" fill="#7727E1" fill-opacity="0.4"/>
</g>
<g filter="url(#filter24_f_242_4441)">
<path d="M23.5964 2270.53C-40.46 2266.71 -69.0695 2200.58 -75.3672 2168C-77.354 2345.47 -80.1355 2685.07 -75.3672 2623.67C-69.4069 2546.93 80.9503 2466.86 115.7 2450.85C150.45 2434.83 153.149 2431.09 163.832 2391.57C172.379 2359.96 153.599 2329.74 143.14 2318.57C129.982 2304.15 87.6529 2274.36 23.5964 2270.53Z" fill="#7727E1" fill-opacity="0.4"/>
</g>
<g filter="url(#filter25_f_242_4441)">
<path d="M23.5964 4565.53C-40.46 4561.71 -69.0695 4495.58 -75.3672 4463C-77.354 4640.47 -80.1355 4980.07 -75.3672 4918.67C-69.4069 4841.93 80.9503 4761.86 115.7 4745.85C150.45 4729.83 153.149 4726.09 163.832 4686.57C172.379 4654.96 153.599 4624.74 143.14 4613.57C129.982 4599.15 87.6529 4569.36 23.5964 4565.53Z" fill="#7727E1" fill-opacity="0.4"/>
</g>
<g filter="url(#filter26_f_242_4441)">
<path d="M-95.7436 1833.56V1601H-87.0907C-73.7058 1601 -36.6607 1659.19 6.60373 1691.82C49.8681 1724.45 76.7731 1717.39 116.928 1747.52C149.052 1771.63 157.623 1806.89 157.894 1821.51C158.66 1839.66 155.622 1878.37 137.343 1888.02C114.494 1900.07 4.59606 2106.24 -68.683 2104.99C-127.306 2104 -97.8618 1851.3 -95.7436 1833.56Z" fill="#7727E1" fill-opacity="0.4"/>
</g>
<g filter="url(#filter27_f_242_4441)">
<path d="M-95.7436 4128.56V3896H-87.0907C-73.7058 3896 -36.6607 3954.19 6.60373 3986.82C49.8681 4019.45 76.7731 4012.39 116.928 4042.52C149.052 4066.63 157.623 4101.89 157.894 4116.51C158.66 4134.66 155.622 4173.37 137.343 4183.02C114.494 4195.07 4.59606 4401.24 -68.683 4399.99C-127.306 4399 -97.8618 4146.3 -95.7436 4128.56Z" fill="#7727E1" fill-opacity="0.4"/>
</g>
<g filter="url(#filter28_f_242_4441)">
<ellipse cx="-16" cy="1906" rx="67" ry="103" fill="#1BF1AD" fill-opacity="0.5"/>
</g>
<g filter="url(#filter29_f_242_4441)">
<ellipse cx="-16" cy="4201" rx="67" ry="103" fill="#1BF1AD" fill-opacity="0.5"/>
</g>
<g filter="url(#filter30_f_242_4441)">
<ellipse cx="7.5" cy="1365.5" rx="51.5" ry="78.5" fill="#1BF1AD" fill-opacity="0.5"/>
</g>
<g filter="url(#filter31_f_242_4441)">
<ellipse cx="7.5" cy="3660.5" rx="51.5" ry="78.5" fill="#1BF1AD" fill-opacity="0.5"/>
</g>
<g filter="url(#filter32_f_242_4441)">
<ellipse cx="-5.5" cy="2474" rx="51.5" ry="79" fill="#1BF1AD" fill-opacity="0.5"/>
</g>
<g filter="url(#filter33_f_242_4441)">
<ellipse cx="-5.5" cy="4769" rx="51.5" ry="79" fill="#1BF1AD" fill-opacity="0.5"/>
</g>
<g filter="url(#filter34_f_242_4441)">
<path d="M489.779 5017.44L489.779 5250L481.159 5250C467.825 5250 430.921 5191.81 387.821 5159.18C344.721 5126.55 317.918 5133.61 277.916 5103.48C245.914 5079.37 237.375 5044.11 237.106 5029.49C236.342 5011.34 239.368 4972.63 257.578 4962.98C280.34 4950.93 389.821 4744.76 462.821 4746.01C521.221 4747 491.889 4999.7 489.779 5017.44Z" fill="#7727E1" fill-opacity="0.4"/>
</g>
<g filter="url(#filter35_f_242_4441)">
<ellipse cx="357" cy="5106.5" rx="59" ry="91.5" transform="rotate(-180 357 5106.5)" fill="#1BF1AD" fill-opacity="0.5"/>
</g>
<defs>
<filter id="filter0_f_242_4441" x="-353" y="-266" width="854" height="961" filterUnits="userSpaceOnUse" color-interpolation-filters="sRGB">
<feFlood flood-opacity="0" result="BackgroundImageFix"/>
<feBlend mode="normal" in="SourceGraphic" in2="BackgroundImageFix" result="shape"/>
<feGaussianBlur stdDeviation="102.5" result="effect1_foregroundBlur_242_4441"/>
</filter>
<filter id="filter1_f_242_4441" x="-310" y="297" width="673" height="914" filterUnits="userSpaceOnUse" color-interpolation-filters="sRGB">
<feFlood flood-opacity="0" result="BackgroundImageFix"/>
<feBlend mode="normal" in="SourceGraphic" in2="BackgroundImageFix" result="shape"/>
<feGaussianBlur stdDeviation="102.5" result="effect1_foregroundBlur_242_4441"/>
</filter>
<filter id="filter2_f_242_4441" x="-310" y="2592" width="673" height="914" filterUnits="userSpaceOnUse" color-interpolation-filters="sRGB">
<feFlood flood-opacity="0" result="BackgroundImageFix"/>
<feBlend mode="normal" in="SourceGraphic" in2="BackgroundImageFix" result="shape"/>
<feGaussianBlur stdDeviation="102.5" result="effect1_foregroundBlur_242_4441"/>
</filter>
<filter id="filter3_f_242_4441" x="32" y="1126" width="672" height="914" filterUnits="userSpaceOnUse" color-interpolation-filters="sRGB">
<feFlood flood-opacity="0" result="BackgroundImageFix"/>
<feBlend mode="normal" in="SourceGraphic" in2="BackgroundImageFix" result="shape"/>
<feGaussianBlur stdDeviation="102.5" result="effect1_foregroundBlur_242_4441"/>
</filter>
<filter id="filter4_f_242_4441" x="32" y="3421" width="672" height="914" filterUnits="userSpaceOnUse" color-interpolation-filters="sRGB">
<feFlood flood-opacity="0" result="BackgroundImageFix"/>
<feBlend mode="normal" in="SourceGraphic" in2="BackgroundImageFix" result="shape"/>
<feGaussianBlur stdDeviation="102.5" result="effect1_foregroundBlur_242_4441"/>
</filter>
<filter id="filter5_f_242_4441" x="-264" y="7" width="523" height="585" filterUnits="userSpaceOnUse" color-interpolation-filters="sRGB">
<feFlood flood-opacity="0" result="BackgroundImageFix"/>
<feBlend mode="normal" in="SourceGraphic" in2="BackgroundImageFix" result="shape"/>
<feGaussianBlur stdDeviation="102.5" result="effect1_foregroundBlur_242_4441"/>
</filter>
<filter id="filter6_f_242_4441" x="94" y="148" width="548" height="623" filterUnits="userSpaceOnUse" color-interpolation-filters="sRGB">
<feFlood flood-opacity="0" result="BackgroundImageFix"/>
<feBlend mode="normal" in="SourceGraphic" in2="BackgroundImageFix" result="shape"/>
<feGaussianBlur stdDeviation="102.5" result="effect1_foregroundBlur_242_4441"/>
</filter>
<filter id="filter7_f_242_4441" x="94" y="2443" width="548" height="623" filterUnits="userSpaceOnUse" color-interpolation-filters="sRGB">
<feFlood flood-opacity="0" result="BackgroundImageFix"/>
<feBlend mode="normal" in="SourceGraphic" in2="BackgroundImageFix" result="shape"/>
<feGaussianBlur stdDeviation="102.5" result="effect1_foregroundBlur_242_4441"/>
</filter>
<filter id="filter8_f_242_4441" x="94" y="1947" width="548" height="621" filterUnits="userSpaceOnUse" color-interpolation-filters="sRGB">
<feFlood flood-opacity="0" result="BackgroundImageFix"/>
<feBlend mode="normal" in="SourceGraphic" in2="BackgroundImageFix" result="shape"/>
<feGaussianBlur stdDeviation="102.5" result="effect1_foregroundBlur_242_4441"/>
</filter>
<filter id="filter9_f_242_4441" x="94" y="4242" width="548" height="621" filterUnits="userSpaceOnUse" color-interpolation-filters="sRGB">
<feFlood flood-opacity="0" result="BackgroundImageFix"/>
<feBlend mode="normal" in="SourceGraphic" in2="BackgroundImageFix" result="shape"/>
<feGaussianBlur stdDeviation="102.5" result="effect1_foregroundBlur_242_4441"/>
</filter>
<filter id="filter10_f_242_4441" x="-26" y="434" width="691" height="960" filterUnits="userSpaceOnUse" color-interpolation-filters="sRGB">
<feFlood flood-opacity="0" result="BackgroundImageFix"/>
<feBlend mode="normal" in="SourceGraphic" in2="BackgroundImageFix" result="shape"/>
<feGaussianBlur stdDeviation="102.5" result="effect1_foregroundBlur_242_4441"/>
</filter>
<filter id="filter11_f_242_4441" x="-26" y="2729" width="691" height="960" filterUnits="userSpaceOnUse" color-interpolation-filters="sRGB">
<feFlood flood-opacity="0" result="BackgroundImageFix"/>
<feBlend mode="normal" in="SourceGraphic" in2="BackgroundImageFix" result="shape"/>
<feGaussianBlur stdDeviation="102.5" result="effect1_foregroundBlur_242_4441"/>
</filter>
<filter id="filter12_f_242_4441" x="154" y="721" width="530" height="596" filterUnits="userSpaceOnUse" color-interpolation-filters="sRGB">
<feFlood flood-opacity="0" result="BackgroundImageFix"/>
<feBlend mode="normal" in="SourceGraphic" in2="BackgroundImageFix" result="shape"/>
<feGaussianBlur stdDeviation="102.5" result="effect1_foregroundBlur_242_4441"/>
</filter>
<filter id="filter13_f_242_4441" x="154" y="3016" width="530" height="596" filterUnits="userSpaceOnUse" color-interpolation-filters="sRGB">
<feFlood flood-opacity="0" result="BackgroundImageFix"/>
<feBlend mode="normal" in="SourceGraphic" in2="BackgroundImageFix" result="shape"/>
<feGaussianBlur stdDeviation="102.5" result="effect1_foregroundBlur_242_4441"/>
</filter>
<filter id="filter14_f_242_4441" x="4" y="-137" width="680" height="1080" filterUnits="userSpaceOnUse" color-interpolation-filters="sRGB">
<feFlood flood-opacity="0" result="BackgroundImageFix"/>
<feBlend mode="normal" in="SourceGraphic" in2="BackgroundImageFix" result="shape"/>
<feGaussianBlur stdDeviation="102.5" result="effect1_foregroundBlur_242_4441"/>
</filter>
<filter id="filter15_f_242_4441" x="4" y="2158" width="680" height="1080" filterUnits="userSpaceOnUse" color-interpolation-filters="sRGB">
<feFlood flood-opacity="0" result="BackgroundImageFix"/>
<feBlend mode="normal" in="SourceGraphic" in2="BackgroundImageFix" result="shape"/>
<feGaussianBlur stdDeviation="102.5" result="effect1_foregroundBlur_242_4441"/>
</filter>
<filter id="filter16_f_242_4441" x="4" y="1660" width="680" height="1081" filterUnits="userSpaceOnUse" color-interpolation-filters="sRGB">
<feFlood flood-opacity="0" result="BackgroundImageFix"/>
<feBlend mode="normal" in="SourceGraphic" in2="BackgroundImageFix" result="shape"/>
<feGaussianBlur stdDeviation="102.5" result="effect1_foregroundBlur_242_4441"/>
</filter>
<filter id="filter17_f_242_4441" x="4" y="3955" width="680" height="1081" filterUnits="userSpaceOnUse" color-interpolation-filters="sRGB">
<feFlood flood-opacity="0" result="BackgroundImageFix"/>
<feBlend mode="normal" in="SourceGraphic" in2="BackgroundImageFix" result="shape"/>
<feGaussianBlur stdDeviation="102.5" result="effect1_foregroundBlur_242_4441"/>
</filter>
<filter id="filter18_f_242_4441" x="-288" y="498" width="544" height="617" filterUnits="userSpaceOnUse" color-interpolation-filters="sRGB">
<feFlood flood-opacity="0" result="BackgroundImageFix"/>
<feBlend mode="normal" in="SourceGraphic" in2="BackgroundImageFix" result="shape"/>
<feGaussianBlur stdDeviation="102.5" result="effect1_foregroundBlur_242_4441"/>
</filter>
<filter id="filter19_f_242_4441" x="-288" y="2793" width="544" height="617" filterUnits="userSpaceOnUse" color-interpolation-filters="sRGB">
<feFlood flood-opacity="0" result="BackgroundImageFix"/>
<feBlend mode="normal" in="SourceGraphic" in2="BackgroundImageFix" result="shape"/>
<feGaussianBlur stdDeviation="102.5" result="effect1_foregroundBlur_242_4441"/>
</filter>
<filter id="filter20_f_242_4441" x="93" y="1395" width="528" height="593" filterUnits="userSpaceOnUse" color-interpolation-filters="sRGB">
<feFlood flood-opacity="0" result="BackgroundImageFix"/>
<feBlend mode="normal" in="SourceGraphic" in2="BackgroundImageFix" result="shape"/>
<feGaussianBlur stdDeviation="102.5" result="effect1_foregroundBlur_242_4441"/>
</filter>
<filter id="filter21_f_242_4441" x="93" y="3690" width="528" height="593" filterUnits="userSpaceOnUse" color-interpolation-filters="sRGB">
<feFlood flood-opacity="0" result="BackgroundImageFix"/>
<feBlend mode="normal" in="SourceGraphic" in2="BackgroundImageFix" result="shape"/>
<feGaussianBlur stdDeviation="102.5" result="effect1_foregroundBlur_242_4441"/>
</filter>
<filter id="filter22_f_242_4441" x="-270" y="855" width="702" height="873" filterUnits="userSpaceOnUse" color-interpolation-filters="sRGB">
<feFlood flood-opacity="0" result="BackgroundImageFix"/>
<feBlend mode="normal" in="SourceGraphic" in2="BackgroundImageFix" result="shape"/>
<feGaussianBlur stdDeviation="102.5" result="effect1_foregroundBlur_242_4441"/>
</filter>
<filter id="filter23_f_242_4441" x="-270" y="3150" width="702" height="873" filterUnits="userSpaceOnUse" color-interpolation-filters="sRGB">
<feFlood flood-opacity="0" result="BackgroundImageFix"/>
<feBlend mode="normal" in="SourceGraphic" in2="BackgroundImageFix" result="shape"/>
<feGaussianBlur stdDeviation="102.5" result="effect1_foregroundBlur_242_4441"/>
</filter>
<filter id="filter24_f_242_4441" x="-283" y="1963" width="654" height="873" filterUnits="userSpaceOnUse" color-interpolation-filters="sRGB">
<feFlood flood-opacity="0" result="BackgroundImageFix"/>
<feBlend mode="normal" in="SourceGraphic" in2="BackgroundImageFix" result="shape"/>
<feGaussianBlur stdDeviation="102.5" result="effect1_foregroundBlur_242_4441"/>
</filter>
<filter id="filter25_f_242_4441" x="-283" y="4258" width="654" height="873" filterUnits="userSpaceOnUse" color-interpolation-filters="sRGB">
<feFlood flood-opacity="0" result="BackgroundImageFix"/>
<feBlend mode="normal" in="SourceGraphic" in2="BackgroundImageFix" result="shape"/>
<feGaussianBlur stdDeviation="102.5" result="effect1_foregroundBlur_242_4441"/>
</filter>
<filter id="filter26_f_242_4441" x="-310" y="1396" width="673" height="914" filterUnits="userSpaceOnUse" color-interpolation-filters="sRGB">
<feFlood flood-opacity="0" result="BackgroundImageFix"/>
<feBlend mode="normal" in="SourceGraphic" in2="BackgroundImageFix" result="shape"/>
<feGaussianBlur stdDeviation="102.5" result="effect1_foregroundBlur_242_4441"/>
</filter>
<filter id="filter27_f_242_4441" x="-310" y="3691" width="673" height="914" filterUnits="userSpaceOnUse" color-interpolation-filters="sRGB">
<feFlood flood-opacity="0" result="BackgroundImageFix"/>
<feBlend mode="normal" in="SourceGraphic" in2="BackgroundImageFix" result="shape"/>
<feGaussianBlur stdDeviation="102.5" result="effect1_foregroundBlur_242_4441"/>
</filter>
<filter id="filter28_f_242_4441" x="-288" y="1598" width="544" height="616" filterUnits="userSpaceOnUse" color-interpolation-filters="sRGB">
<feFlood flood-opacity="0" result="BackgroundImageFix"/>
<feBlend mode="normal" in="SourceGraphic" in2="BackgroundImageFix" result="shape"/>
<feGaussianBlur stdDeviation="102.5" result="effect1_foregroundBlur_242_4441"/>
</filter>
<filter id="filter29_f_242_4441" x="-288" y="3893" width="544" height="616" filterUnits="userSpaceOnUse" color-interpolation-filters="sRGB">
<feFlood flood-opacity="0" result="BackgroundImageFix"/>
<feBlend mode="normal" in="SourceGraphic" in2="BackgroundImageFix" result="shape"/>
<feGaussianBlur stdDeviation="102.5" result="effect1_foregroundBlur_242_4441"/>
</filter>
<filter id="filter30_f_242_4441" x="-249" y="1082" width="513" height="567" filterUnits="userSpaceOnUse" color-interpolation-filters="sRGB">
<feFlood flood-opacity="0" result="BackgroundImageFix"/>
<feBlend mode="normal" in="SourceGraphic" in2="BackgroundImageFix" result="shape"/>
<feGaussianBlur stdDeviation="102.5" result="effect1_foregroundBlur_242_4441"/>
</filter>
<filter id="filter31_f_242_4441" x="-249" y="3377" width="513" height="567" filterUnits="userSpaceOnUse" color-interpolation-filters="sRGB">
<feFlood flood-opacity="0" result="BackgroundImageFix"/>
<feBlend mode="normal" in="SourceGraphic" in2="BackgroundImageFix" result="shape"/>
<feGaussianBlur stdDeviation="102.5" result="effect1_foregroundBlur_242_4441"/>
</filter>
<filter id="filter32_f_242_4441" x="-262" y="2190" width="513" height="568" filterUnits="userSpaceOnUse" color-interpolation-filters="sRGB">
<feFlood flood-opacity="0" result="BackgroundImageFix"/>
<feBlend mode="normal" in="SourceGraphic" in2="BackgroundImageFix" result="shape"/>
<feGaussianBlur stdDeviation="102.5" result="effect1_foregroundBlur_242_4441"/>
</filter>
<filter id="filter33_f_242_4441" x="-262" y="4485" width="513" height="568" filterUnits="userSpaceOnUse" color-interpolation-filters="sRGB">
<feFlood flood-opacity="0" result="BackgroundImageFix"/>
<feBlend mode="normal" in="SourceGraphic" in2="BackgroundImageFix" result="shape"/>
<feGaussianBlur stdDeviation="102.5" result="effect1_foregroundBlur_242_4441"/>
</filter>
<filter id="filter34_f_242_4441" x="32" y="4541" width="672" height="914" filterUnits="userSpaceOnUse" color-interpolation-filters="sRGB">
<feFlood flood-opacity="0" result="BackgroundImageFix"/>
<feBlend mode="normal" in="SourceGraphic" in2="BackgroundImageFix" result="shape"/>
<feGaussianBlur stdDeviation="102.5" result="effect1_foregroundBlur_242_4441"/>
</filter>
<filter id="filter35_f_242_4441" x="93" y="4810" width="528" height="593" filterUnits="userSpaceOnUse" color-interpolation-filters="sRGB">
<feFlood flood-opacity="0" result="BackgroundImageFix"/>
<feBlend mode="normal" in="SourceGraphic" in2="BackgroundImageFix" result="shape"/>
<feGaussianBlur stdDeviation="102.5" result="effect1_foregroundBlur_242_4441"/>
</filter>
</defs>
</svg>
