<svg width="77" height="77" viewBox="0 0 77 77" fill="none" xmlns="http://www.w3.org/2000/svg">
<rect width="77" height="77" rx="8" fill="#B0B4D4" fill-opacity="0.05"/>
<path d="M38.6768 28.8513C38.2784 28.9648 38.0475 29.3797 38.161 29.7781C38.2745 30.1765 38.6895 30.4074 39.0878 30.2939L38.6768 28.8513ZM45.7184 31.2816L46.2488 30.7513V30.7513L45.7184 31.2816ZM46.7062 37.9122C46.5927 38.3106 46.8236 38.7255 47.2219 38.839C47.6203 38.9525 48.0353 38.7216 48.1488 38.3232L46.7062 37.9122ZM40.8721 31.8278C40.4659 31.9087 40.2021 32.3037 40.2831 32.7099C40.364 33.1161 40.7589 33.3798 41.1651 33.2989L40.8721 31.8278ZM43.7011 35.8349C43.6202 36.2412 43.8839 36.6361 44.2902 36.717C44.6964 36.7979 45.0913 36.5342 45.1722 36.1279L43.7011 35.8349ZM39.0878 30.2939C41.2321 29.6829 43.5696 30.1934 45.1881 31.8119L46.2488 30.7513C44.2159 28.7184 41.3032 28.1029 38.6768 28.8513L39.0878 30.2939ZM45.1881 31.8119C46.8066 33.4305 47.3171 35.768 46.7062 37.9122L48.1488 38.3232C48.8971 35.6968 48.2817 32.7842 46.2488 30.7513L45.1881 31.8119ZM41.1651 33.2989C41.7507 33.1823 42.4833 33.3797 43.0518 33.9482L44.1125 32.8876C43.2205 31.9955 41.9904 31.6051 40.8721 31.8278L41.1651 33.2989ZM43.0518 33.9482C43.6204 34.5168 43.8177 35.2493 43.7011 35.8349L45.1722 36.1279C45.395 35.0096 45.0045 33.7796 44.1125 32.8876L43.0518 33.9482Z" fill="#00D99E"/>
<path d="M41.4136 48.5803C42.3643 48.7478 43.3416 48.7478 44.2923 48.5803C45.8203 48.3111 47.0512 47.2852 47.4751 45.9275L47.565 45.6395C47.6585 45.3401 47.7059 45.0305 47.7059 44.7194C47.7059 43.3475 46.479 42.2354 44.9655 42.2354H40.7404C39.2269 42.2354 38 43.3475 38 44.7194C38 45.0305 38.0474 45.3401 38.1409 45.6395L38.2308 45.9275C38.6548 47.2852 39.8856 48.3111 41.4136 48.5803ZM41.4136 48.5803C34.81 47.3568 29.6433 42.1901 28.4198 35.5865M28.4198 35.5865C28.2522 34.6358 28.2522 33.6584 28.4198 32.7078C28.689 31.1797 29.7149 29.9489 31.0726 29.525L31.3606 29.4351C31.6599 29.3416 31.9696 29.2942 32.2807 29.2942C33.6526 29.2942 34.7647 30.5211 34.7647 32.0346L34.7647 36.2597C34.7647 37.7732 33.6526 39.0001 32.2807 39.0001C31.9696 39.0001 31.6599 38.9527 31.3606 38.8592L31.0726 38.7693C29.7149 38.3453 28.689 37.1145 28.4198 35.5865Z" stroke="#B0B4D4" stroke-width="1.5"/>
</svg>
