<svg width="195" height="23" viewBox="0 0 195 23" fill="none" xmlns="http://www.w3.org/2000/svg">
<rect x="0.5" y="0.5" width="22" height="22" rx="3.5" fill="#00D99E" stroke="#00D99E"/>
<rect x="43.5" y="0.5" width="22" height="22" rx="3.5" fill="#00D99E" stroke="#00D99E"/>
<rect x="86.5" y="0.5" width="22" height="22" rx="3.5" fill="#00D99E" stroke="#00D99E"/>
<rect x="129.5" y="0.5" width="22" height="22" rx="3.5" fill="#00D99E" stroke="#00D99E"/>
<rect x="172.5" y="0.5" width="22" height="22" rx="3.5" fill="#00D99E" stroke="#00D99E"/>
<path fill-rule="evenodd" clip-rule="evenodd" d="M17.2495 7.19055C17.5585 7.46643 17.5853 7.94054 17.3095 8.24952L10.1666 16.2495C10.0243 16.4089 9.8208 16.5 9.60715 16.5C9.3935 16.5 9.18999 16.4089 9.0477 16.2495L6.19055 13.0495C5.91468 12.7405 5.94152 12.2664 6.2505 11.9906C6.55947 11.7147 7.03359 11.7415 7.30946 12.0505L9.60715 14.6239L16.1906 7.2505C16.4664 6.94152 16.9405 6.91468 17.2495 7.19055Z" fill="#25235A"/>
<path fill-rule="evenodd" clip-rule="evenodd" d="M60.2495 7.19055C60.5585 7.46643 60.5853 7.94054 60.3095 8.24952L53.1666 16.2495C53.0243 16.4089 52.8208 16.5 52.6071 16.5C52.3935 16.5 52.19 16.4089 52.0477 16.2495L49.1906 13.0495C48.9147 12.7405 48.9415 12.2664 49.2505 11.9906C49.5595 11.7147 50.0336 11.7415 50.3095 12.0505L52.6071 14.6239L59.1906 7.2505C59.4664 6.94152 59.9405 6.91468 60.2495 7.19055Z" fill="#25235A"/>
<path fill-rule="evenodd" clip-rule="evenodd" d="M103.25 7.19055C103.558 7.46643 103.585 7.94054 103.309 8.24952L96.1666 16.2495C96.0243 16.4089 95.8208 16.5 95.6071 16.5C95.3935 16.5 95.19 16.4089 95.0477 16.2495L92.1906 13.0495C91.9147 12.7405 91.9415 12.2664 92.2505 11.9906C92.5595 11.7147 93.0336 11.7415 93.3095 12.0505L95.6071 14.6239L102.191 7.2505C102.466 6.94152 102.941 6.91468 103.25 7.19055Z" fill="#25235A"/>
<path fill-rule="evenodd" clip-rule="evenodd" d="M146.25 7.19055C146.558 7.46643 146.585 7.94054 146.309 8.24952L139.167 16.2495C139.024 16.4089 138.821 16.5 138.607 16.5C138.393 16.5 138.19 16.4089 138.048 16.2495L135.191 13.0495C134.915 12.7405 134.942 12.2664 135.25 11.9906C135.559 11.7147 136.034 11.7415 136.309 12.0505L138.607 14.6239L145.191 7.2505C145.466 6.94152 145.941 6.91468 146.25 7.19055Z" fill="#25235A"/>
<path fill-rule="evenodd" clip-rule="evenodd" d="M189.25 7.19055C189.558 7.46643 189.585 7.94054 189.309 8.24952L182.167 16.2495C182.024 16.4089 181.821 16.5 181.607 16.5C181.393 16.5 181.19 16.4089 181.048 16.2495L178.191 13.0495C177.915 12.7405 177.942 12.2664 178.25 11.9906C178.559 11.7147 179.034 11.7415 179.309 12.0505L181.607 14.6239L188.191 7.2505C188.466 6.94152 188.941 6.91468 189.25 7.19055Z" fill="#25235A"/>
<rect x="29" y="11" width="8" height="1" fill="#00D99E"/>
<rect x="72" y="11" width="8" height="1" fill="#00D99E"/>
<rect x="115" y="11" width="8" height="1" fill="#00D99E"/>
<rect x="158" y="11" width="8" height="1" fill="#00D99E"/>
</svg>
