<svg width="149" height="42" viewBox="0 0 149 42" fill="none" xmlns="http://www.w3.org/2000/svg">
<g clip-path="url(#clip0_238_1595)">
<path d="M72.8938 10.529C71.8147 7.97671 71.5434 5.16862 70.0949 2.7448C69.0767 1.04058 67.062 -0.0306729 65.0946 0.000924491C63.1273 -0.0306729 61.1136 1.04058 60.0943 2.7448C58.6459 5.16862 58.3746 7.97671 57.2955 10.529C55.6016 14.5357 53.1082 17.2459 53.1082 22.3362C53.1082 28.7851 58.55 34.0231 65.0936 33.9691C71.6372 34.0231 77.0791 28.7851 77.0791 22.3362C77.0811 17.247 74.5877 14.5357 72.8938 10.529ZM70.3219 27.3041C68.9405 28.6526 67.1197 29.3956 65.1968 29.3956H64.9946C63.0706 29.3956 61.2508 28.6526 59.8684 27.3041C58.4953 25.9648 57.7391 24.2004 57.7391 22.3372C57.7391 19.8114 58.6222 18.1388 59.8437 15.8241C60.3915 14.7854 61.0125 13.6092 61.5685 12.2933C62.1174 10.9958 62.4826 9.70437 62.8044 8.56584C63.1944 7.18575 63.5317 5.99423 64.0826 5.07179C64.2374 4.81187 64.681 4.5754 65.0121 4.5754C65.0389 4.5754 65.0689 4.5754 65.0988 4.5754C65.1235 4.5754 65.1473 4.5754 65.1699 4.5754C65.5104 4.5754 65.954 4.81187 66.1087 5.07179C66.6596 5.99423 66.997 7.18575 67.3869 8.56584C67.7088 9.70539 68.074 10.9958 68.6228 12.2943C69.1789 13.6092 69.7999 14.7864 70.3477 15.8241C71.5691 18.1388 72.4522 19.8114 72.4522 22.3372C72.4512 24.2004 71.695 25.9648 70.3219 27.3041Z" fill="#B0B4D4"/>
<path d="M12.1546 11.0693C9.08142 11.0693 6.41775 12.2272 4.74445 14.2382V0H0V33.4748H4.42774V30.4415C6.10104 32.7155 8.9473 33.9671 12.2 33.9671C18.3898 33.9671 23.0424 29.0135 23.0424 22.5411C23.0424 16.0239 18.4352 11.0693 12.1546 11.0693ZM11.3861 29.6821C7.90846 29.6821 4.69803 27.3144 4.69803 22.5401C4.69803 17.718 7.90846 15.3532 11.3861 15.3532C15.1825 15.3532 18.1618 18.2969 18.1618 22.4953C18.1618 26.6906 15.2248 29.6821 11.3861 29.6821Z" fill="#B0B4D4"/>
<path d="M38.0269 11.0694C31.6586 10.9797 26.192 16.2004 26.3282 22.4964C26.191 28.6987 31.6586 34.0998 38.0269 33.9683C44.49 34.0998 49.9535 28.6987 49.8204 22.4964C49.9535 16.2901 44.49 10.9348 38.0269 11.0694ZM38.0269 29.6374C34.1428 29.6374 31.1603 26.601 31.1603 22.5412C31.1603 18.4784 34.1428 15.3544 38.0722 15.3544C41.914 15.3544 44.9388 18.4784 44.9388 22.5412C44.9398 26.5144 41.9605 29.6374 38.0269 29.6374Z" fill="#B0B4D4"/>
<path d="M103.783 25.7101L96.9617 11.0693H95.3337L88.6045 25.8864L82.7758 11.5586H77.7167L87.5656 33.9672H89.1904L96.1477 19.3692L103.106 33.9672H104.731L114.58 11.5586H109.52L103.783 25.7101Z" fill="#B0B4D4"/>
<path d="M122.619 0H117.876V33.4748H122.619V0Z" fill="#B0B4D4"/>
<path d="M143.941 11.5586L137.39 27.4959L131.022 11.5586H125.916L134.773 32.4944L133.867 34.5472C132.783 37.0016 131.246 37.7609 129.032 37.7609C128.674 37.7609 127.815 37.7161 126.415 37.5846V41.5577C127.632 41.8696 128.853 42.0011 130.075 42.0011C133.868 42.0011 136.352 40.1256 138.205 35.9762L149.002 11.5596H143.941V11.5586Z" fill="#B0B4D4"/>
</g>
<defs>
<clipPath id="clip0_238_1595">
<rect width="149" height="42" fill="white"/>
</clipPath>
</defs>
</svg>
