<svg width="100" height="100" viewBox="0 0 100 100" fill="none" xmlns="http://www.w3.org/2000/svg">
<rect width="100" height="100" rx="8" fill="#B0B4D4" fill-opacity="0.05"/>
<path d="M57.875 48.4881C54.6934 49.5487 50.4513 45.3066 51.5119 42.125M52.819 40.8179L45.9646 47.6723C42.9847 50.6522 40.8706 54.3859 39.8485 58.4743L39.5173 59.7991C39.4141 60.2119 39.7881 60.5859 40.2009 60.4827L41.5257 60.1515C45.6141 59.1294 49.3478 57.0153 52.3277 54.0354L59.1821 47.181C60.026 46.3372 60.5 45.1927 60.5 43.9994C60.5 41.5145 58.4855 39.5 56.0006 39.5C54.8073 39.5 53.6628 39.974 52.819 40.8179Z" stroke="#B0B4D4" stroke-width="1.5"/>
<path d="M52.8189 40.8179L52.2886 40.2875L52.2886 40.2875L52.8189 40.8179ZM59.1821 47.181L58.6518 46.6507L58.6518 46.6507L59.1821 47.181ZM57.8749 48.4881L58.1121 49.1997L58.2801 49.1437L58.4053 49.0185L57.8749 48.4881ZM51.5118 42.125L50.9815 41.5947L50.8563 41.7199L50.8003 41.8878L51.5118 42.125ZM56.0005 38.75C54.6083 38.75 53.2731 39.3031 52.2886 40.2875L53.3493 41.3482C54.0524 40.645 55.0061 40.25 56.0005 40.25V38.75ZM59.7499 43.9994C59.7499 44.9938 59.3549 45.9475 58.6518 46.6507L59.7124 47.7113C60.6969 46.7269 61.2499 45.3917 61.2499 43.9994H59.7499ZM61.2499 43.9994C61.2499 41.1002 58.8997 38.75 56.0005 38.75V40.25C58.0713 40.25 59.7499 41.9287 59.7499 43.9994H61.2499ZM57.6378 47.7766C56.4314 48.1788 54.8607 47.5948 53.6329 46.367C52.4051 45.1392 51.8212 43.5685 52.2233 42.3622L50.8003 41.8878C50.1419 43.863 51.1488 46.0042 52.5723 47.4277C53.9958 48.8512 56.1369 49.8581 58.1121 49.1997L57.6378 47.7766ZM52.2886 40.2875L50.9815 41.5947L52.0421 42.6553L53.3493 41.3482L52.2886 40.2875ZM58.6518 46.6507L57.3446 47.9578L58.4053 49.0185L59.7124 47.7113L58.6518 46.6507Z" fill="#00D99E"/>
</svg>
