<svg width="100" height="100" viewBox="0 0 100 100" fill="none" xmlns="http://www.w3.org/2000/svg">
<rect width="100" height="100" rx="8" fill="#B0B4D4" fill-opacity="0.05"/>
<path d="M38.063 52.7669L38.7835 52.5584L38.063 52.7669ZM38.063 43.072L37.3426 42.8635H37.3426L38.063 43.072ZM62.937 43.072L63.6574 42.8636V42.8636L62.937 43.072ZM62.937 52.7669L62.2165 52.5584V52.5584L62.937 52.7669ZM57.5216 57.8027L57.3815 57.0659L57.5216 57.8027ZM43.4784 57.8027L43.6185 57.0659L43.4784 57.8027ZM43.4784 38.0363L43.3384 37.2995L43.4784 38.0363ZM57.5216 38.0363L57.6617 37.2995L57.5216 38.0363ZM38.1334 53.0101L37.413 53.2186H37.413L38.1334 53.0101ZM62.8666 53.0101L63.587 53.2186L63.587 53.2186L62.8666 53.0101ZM62.8666 42.8288L62.1462 43.0373L62.1462 43.0373L62.8666 42.8288ZM38.1334 42.8288L38.8538 43.0373L38.1334 42.8288ZM51.25 59.1377C51.25 58.7235 50.9142 58.3877 50.5 58.3877C50.0858 58.3877 49.75 58.7235 49.75 59.1377H51.25ZM49.75 63.625C49.75 64.0392 50.0858 64.375 50.5 64.375C50.9142 64.375 51.25 64.0392 51.25 63.625H49.75ZM46.6556 62.875C46.2414 62.875 45.9056 63.2108 45.9056 63.625C45.9056 64.0392 46.2414 64.375 46.6556 64.375V62.875ZM54.3444 64.375C54.7586 64.375 55.0944 64.0392 55.0944 63.625C55.0944 63.2108 54.7586 62.875 54.3444 62.875V64.375ZM62.1462 43.0373L62.2166 43.2805L63.6574 42.8636L63.587 42.6203L62.1462 43.0373ZM62.2165 52.5584L62.1462 52.8017L63.587 53.2186L63.6574 52.9754L62.2165 52.5584ZM38.8538 52.8017L38.7835 52.5584L37.3426 52.9754L37.413 53.2186L38.8538 52.8017ZM38.7835 43.2805L38.8538 43.0373L37.413 42.6203L37.3426 42.8635L38.7835 43.2805ZM38.7835 52.5584C37.9055 49.5246 37.9055 46.3143 38.7835 43.2805L37.3426 42.8635C36.3858 46.1698 36.3858 49.6692 37.3426 52.9754L38.7835 52.5584ZM62.2166 43.2805C63.0945 46.3143 63.0945 49.5246 62.2165 52.5584L63.6574 52.9754C64.6142 49.6692 64.6142 46.1698 63.6574 42.8636L62.2166 43.2805ZM57.3815 57.0659C52.8369 57.9299 48.1631 57.9299 43.6185 57.0659L43.3384 58.5395C48.0681 59.4387 52.9319 59.4387 57.6616 58.5395L57.3815 57.0659ZM43.6185 38.7731C48.1631 37.909 52.8369 37.909 57.3815 38.7731L57.6617 37.2995C52.9319 36.4002 48.0681 36.4002 43.3384 37.2995L43.6185 38.7731ZM43.6185 57.0659C41.3186 56.6285 39.482 54.9725 38.8538 52.8017L37.413 53.2186C38.2031 55.949 40.5009 58 43.3384 58.5395L43.6185 57.0659ZM57.6616 58.5395C60.4991 58 62.7969 55.949 63.587 53.2186L62.1462 52.8017C61.518 54.9725 59.6814 56.6285 57.3815 57.0659L57.6616 58.5395ZM57.3815 38.7731C59.6814 39.2104 61.518 40.8665 62.1462 43.0373L63.587 42.6203C62.7969 39.8899 60.4991 37.839 57.6617 37.2995L57.3815 38.7731ZM43.3384 37.2995C40.5009 37.839 38.2031 39.8899 37.413 42.6203L38.8538 43.0373C39.482 40.8665 41.3186 39.2104 43.6185 38.7731L43.3384 37.2995ZM49.75 59.1377V63.625H51.25V59.1377H49.75ZM46.6556 64.375H54.3444V62.875H46.6556V64.375Z" fill="#B0B4D4"/>
<path d="M44.6666 49.4062L48.035 46.7537C48.4108 46.4577 48.5987 46.3097 48.8065 46.3361C49.0143 46.3625 49.1592 46.5528 49.4491 46.9333L51.5508 49.6917C51.8407 50.0722 51.9857 50.2625 52.1934 50.2889C52.4012 50.3153 52.5891 50.1673 52.9649 49.8713L56.3333 47.2188" stroke="#00D99E" stroke-width="1.5" stroke-linecap="round"/>
</svg>
