<svg width="180" height="42" viewBox="0 0 180 42" fill="none" xmlns="http://www.w3.org/2000/svg">
<g clip-path="url(#clip0_238_1582)">
<path d="M35.3397 17.6218C34.127 17.6218 33.1695 18.6597 33.1695 19.9516C33.1695 21.2436 34.1482 22.2814 35.3397 22.2814C36.5525 22.2814 37.51 21.2436 37.51 19.9516C37.51 18.6597 36.5312 17.6218 35.3397 17.6218ZM27.5737 17.6218C26.3609 17.6218 25.4034 18.6597 25.4034 19.9516C25.4034 21.2436 26.3822 22.2814 27.5737 22.2814C28.7865 22.2814 29.7439 21.2436 29.7439 19.9516C29.7652 18.6597 28.7865 17.6218 27.5737 17.6218Z" fill="#B0B4D4"/>
<path d="M45.6804 0H17.1694C14.7651 0 12.8076 1.94856 12.8076 4.34191V32.7232C12.8076 35.1165 14.7651 37.0651 17.1694 37.0651H41.2973L40.1696 33.1891L42.8931 35.6884L45.4676 38.0393L50.0634 42V4.34191C50.0421 1.94856 48.0846 0 45.6804 0ZM37.4675 27.4281C37.4675 27.4281 36.7015 26.5174 36.0632 25.7337C38.8505 24.9501 39.9143 23.2345 39.9143 23.2345C39.042 23.8064 38.2122 24.2088 37.4675 24.4841C36.4036 24.9289 35.3824 25.2042 34.3823 25.3949C32.3398 25.7761 30.4674 25.6702 28.8716 25.3737C27.6589 25.1407 26.6163 24.823 25.7439 24.4629C25.2546 24.2723 24.7227 24.0393 24.1907 23.7428C24.1269 23.7005 24.0631 23.6793 23.9992 23.6369C23.9567 23.6157 23.9354 23.5946 23.9141 23.5946C23.5311 23.3828 23.3184 23.2345 23.3184 23.2345C23.3184 23.2345 24.3397 24.9077 27.0418 25.7126C26.4035 26.5174 25.6163 27.4493 25.6163 27.4493C20.9141 27.3011 19.1268 24.2511 19.1268 24.2511C19.1268 17.4947 22.1907 12.0091 22.1907 12.0091C25.2546 9.74282 28.1482 9.80636 28.1482 9.80636L28.361 10.0605C24.5312 11.1407 22.7865 12.8139 22.7865 12.8139C22.7865 12.8139 23.2545 12.5598 24.0418 12.2209C26.3184 11.2254 28.127 10.9713 28.8716 10.8865C28.9993 10.8654 29.1057 10.8442 29.2333 10.8442C30.5312 10.6747 31.9993 10.6324 33.5313 10.8018C35.5526 11.0348 37.7228 11.6278 39.9356 12.8139C39.9356 12.8139 38.2547 11.2254 34.6377 10.1452L34.9355 9.80636C34.9355 9.80636 37.8505 9.74282 40.8931 12.0091C40.8931 12.0091 43.9569 17.4947 43.9569 24.2511C43.9569 24.23 42.1697 27.2799 37.4675 27.4281ZM69.5955 9.06505H62.5316V16.9652L67.2338 21.18V13.5129H69.7445C71.3402 13.5129 72.1275 14.2753 72.1275 15.5038V21.3707C72.1275 22.5991 71.3828 23.4251 69.7445 23.4251H62.5103V27.8941H69.5743C73.3615 27.9153 76.9148 26.0303 76.9148 21.7095V15.3979C76.9361 10.9924 73.3828 9.06505 69.5955 9.06505ZM106.617 21.7095V15.2284C106.617 12.8986 110.83 12.3691 112.107 14.6989L116 13.1316C114.468 9.78518 111.681 8.81089 109.362 8.81089C105.575 8.81089 101.83 10.9924 101.83 15.2284V21.7095C101.83 25.9879 105.575 28.1271 109.277 28.1271C111.66 28.1271 114.511 26.9622 116.085 23.9123L111.915 22.0061C110.894 24.6112 106.617 23.9758 106.617 21.7095ZM93.7448 16.118C92.2767 15.8003 91.2979 15.2708 91.2341 14.3601C91.3192 12.1785 94.7022 12.0938 96.681 14.1906L99.8087 11.7973C97.8512 9.42512 95.6384 8.78971 93.3618 8.78971C89.8936 8.78971 86.5319 10.7383 86.5319 14.4236C86.5319 18.003 89.2979 19.9304 92.3405 20.3964C93.8937 20.6082 95.6171 21.2224 95.5746 22.2814C95.4469 24.2935 91.2766 24.1876 89.383 21.9002L86.3617 24.7171C88.1277 26.9834 90.532 28.1271 92.7873 28.1271C96.2554 28.1271 100.107 26.1362 100.255 22.4932C100.468 17.8971 97.1065 16.7322 93.7448 16.118ZM79.4893 27.8729H84.2553V9.06505H79.4893V27.8729ZM159.852 9.06505H152.788V16.9652L157.49 21.18V13.5129H160.001C161.597 13.5129 162.384 14.2753 162.384 15.5038V21.3707C162.384 22.5991 161.639 23.4251 160.001 23.4251H152.767V27.8941H159.852C163.639 27.9153 167.192 26.0303 167.192 21.7095V15.3979C167.192 10.9924 163.639 9.06505 159.852 9.06505ZM125.192 8.81089C121.277 8.81089 117.383 10.9289 117.383 15.2708V21.6884C117.383 25.9879 121.298 28.1483 125.234 28.1483C129.149 28.1483 133.043 25.9879 133.043 21.6884V15.2708C133.043 10.9501 129.107 8.81089 125.192 8.81089ZM128.256 21.6884C128.256 23.0439 126.724 23.7428 125.213 23.7428C123.681 23.7428 122.149 23.0862 122.149 21.6884V15.2708C122.149 13.8941 123.639 13.1528 125.128 13.1528C126.681 13.1528 128.256 13.8094 128.256 15.2708V21.6884ZM150.15 15.2708C150.043 10.8654 147.022 9.08624 143.128 9.08624H135.575V27.8941H140.405V21.9213H141.256L145.639 27.8941H151.597L146.448 21.4342C148.724 20.7141 150.15 18.7443 150.15 15.2708ZM143.213 17.8124H140.405V13.5129H143.213C146.213 13.5129 146.213 17.8124 143.213 17.8124Z" fill="#B0B4D4"/>
</g>
<defs>
<clipPath id="clip0_238_1582">
<rect width="180" height="42" fill="white"/>
</clipPath>
</defs>
</svg>
