<svg width="128" height="30" viewBox="0 0 128 30" fill="none" xmlns="http://www.w3.org/2000/svg">
<path d="M18.1416 0.532104V4.74423H5.37528V13.1685H16.1258V17.3806H5.37528V28.9972H0V0.532104H18.1416Z" fill="#B0B4D4"/>
<path d="M28.1306 8.46863C29.6536 8.46863 31.0423 8.69032 32.2965 9.17804C33.5507 9.66576 34.581 10.3308 35.4769 11.2619C36.3727 12.193 37.0447 13.2571 37.4926 14.543C37.9853 15.8288 38.2093 17.2476 38.2093 18.8438C38.2093 20.4399 37.9853 21.9031 37.4926 23.1889C36.9999 24.4747 36.328 25.5832 35.4769 26.4699C34.6258 27.3567 33.5507 28.0661 32.2965 28.5538C31.0423 29.0415 29.6536 29.2632 28.1306 29.2632C26.6077 29.2632 25.219 29.0415 23.9648 28.5538C22.7106 28.0661 21.6355 27.3567 20.7844 26.4699C19.9333 25.5832 19.2166 24.4747 18.7239 23.1889C18.2312 21.9031 18.0072 20.4399 18.0072 18.8438C18.0072 17.2476 18.2312 15.8288 18.7239 14.543C19.2166 13.2571 19.8886 12.1487 20.7844 11.2619C21.6803 10.3752 22.7106 9.66576 23.9648 9.17804C25.219 8.73466 26.6077 8.46863 28.1306 8.46863ZM28.1306 25.5388C29.8328 25.5388 31.0871 24.9624 31.8933 23.854C32.6996 22.7455 33.1028 21.0607 33.1028 18.8881C33.1028 16.7155 32.6996 15.0307 31.8933 13.9222C31.0871 12.7694 29.8328 12.193 28.1306 12.193C26.4285 12.193 25.1295 12.7694 24.3232 13.9222C23.5169 15.075 23.0689 16.7155 23.0689 18.8881C23.0689 21.0607 23.4721 22.7012 24.3232 23.854C25.1295 25.0068 26.4285 25.5388 28.1306 25.5388Z" fill="#B0B4D4"/>
<path d="M44.4356 18.5777L37.7165 8.77893H42.4647C42.823 8.77893 43.0918 8.82327 43.271 8.91195C43.4502 9.00062 43.5845 9.17797 43.7189 9.39967L47.9744 16.1391C48.0191 15.9174 48.1087 15.6957 48.2431 15.474C48.3327 15.2523 48.4671 15.0306 48.6015 14.8089L52.0506 9.48834C52.2298 9.22231 52.3642 9.04496 52.5433 8.95628C52.7225 8.82327 52.9465 8.77893 53.1705 8.77893H57.6947L50.9756 18.356L57.9634 28.9971H53.2153C52.8569 28.9971 52.5881 28.9085 52.3642 28.7311C52.1402 28.5538 51.961 28.3321 51.8266 28.1104L47.4816 21.0606C47.3472 21.5483 47.2129 21.9474 46.9889 22.2577L43.1814 28.1104C43.047 28.3321 42.8678 28.5538 42.6439 28.7311C42.4199 28.9085 42.1511 28.9971 41.8376 28.9971H37.4478L44.4356 18.5777Z" fill="#B0B4D4"/>
<path d="M84.7952 14.8976C84.7952 17.0259 84.4368 18.9324 83.7649 20.6616C83.093 22.3908 82.1523 23.8983 80.8981 25.0954C79.6438 26.3369 78.1656 27.268 76.4635 27.9774C74.7613 28.6425 72.8351 28.9972 70.7298 28.9972H60.0688V0.798096H70.7746C72.8799 0.798096 74.7613 1.1528 76.5083 1.81787C78.2104 2.48295 79.6886 3.45839 80.9429 4.69985C82.1971 5.94132 83.1378 7.44882 83.8097 9.17801C84.4816 10.9072 84.7952 12.8137 84.7952 14.8976ZM80.8533 14.8976C80.8533 13.1684 80.6293 11.6166 80.1366 10.2421C79.6438 8.86764 78.9719 7.71485 78.1208 6.78375C77.2697 5.85265 76.1947 5.0989 74.9405 4.61118C73.6862 4.12346 72.2976 3.85743 70.7746 3.85743H64.0107V25.8935H70.7746C72.2976 25.8935 73.6862 25.6275 74.9405 25.1398C76.1947 24.652 77.2697 23.9426 78.1208 22.9672C78.9719 21.9917 79.6886 20.8833 80.1366 19.5088C80.5845 18.1787 80.8533 16.6268 80.8533 14.8976Z" fill="#B0B4D4"/>
<path d="M95.5009 8.73462C96.7103 8.73462 97.8301 8.95631 98.8604 9.35535C99.8907 9.7544 100.742 10.3308 101.503 11.0845C102.265 11.8383 102.847 12.7694 103.25 13.8778C103.653 14.9863 103.877 16.2721 103.877 17.6466C103.877 18.1787 103.833 18.5777 103.698 18.755C103.564 18.9324 103.34 19.0211 103.026 19.0211H89.588C89.6328 20.2625 89.7672 21.371 90.1256 22.3021C90.4839 23.2332 90.8871 24.0313 91.4246 24.652C91.9621 25.2728 92.634 25.7605 93.3955 26.0708C94.157 26.3812 95.0081 26.5142 95.9936 26.5142C96.8895 26.5142 97.651 26.4256 98.2781 26.2039C98.9052 25.9822 99.4875 25.7605 99.9355 25.5388C100.383 25.3171 100.787 25.0954 101.1 24.8737C101.414 24.652 101.682 24.5633 101.906 24.5633C102.22 24.5633 102.444 24.6964 102.578 24.9181L103.564 26.2039C103.116 26.7359 102.623 27.1793 101.996 27.5783C101.369 27.9774 100.742 28.2878 100.025 28.5538C99.3083 28.8198 98.5916 28.9972 97.8749 29.1302C97.1134 29.2632 96.3967 29.3075 95.68 29.3075C94.2914 29.3075 92.9924 29.0858 91.8277 28.5981C90.6631 28.1104 89.6328 27.4453 88.7817 26.5586C87.9307 25.6718 87.2588 24.5633 86.766 23.2332C86.2733 21.9031 86.0493 20.3956 86.0493 18.6664C86.0493 17.2919 86.2733 15.9617 86.6764 14.7646C87.1244 13.5675 87.7067 12.5034 88.5578 11.6166C89.3641 10.7298 90.3495 10.0204 91.5142 9.53271C92.7236 9.00065 94.0226 8.73462 95.5009 8.73462ZM95.5456 11.3062C93.8435 11.3062 92.4997 11.794 91.5142 12.7694C90.5287 13.7448 89.9016 15.1193 89.6776 16.8485H100.652C100.652 16.0504 100.518 15.2967 100.294 14.6316C100.07 13.9665 99.7563 13.3901 99.3083 12.8581C98.8604 12.3703 98.3229 11.9713 97.6958 11.7053C97.0686 11.4392 96.3519 11.3062 95.5456 11.3062Z" fill="#B0B4D4"/>
<path d="M121.168 28.9972H119.6C119.242 28.9972 118.973 28.9529 118.749 28.8198C118.525 28.7312 118.391 28.5095 118.346 28.1548L117.943 26.2926C117.405 26.7803 116.912 27.1793 116.375 27.5784C115.882 27.9331 115.345 28.2878 114.762 28.5095C114.225 28.7755 113.598 28.9529 112.97 29.0859C112.343 29.2189 111.627 29.2632 110.865 29.2632C110.104 29.2632 109.342 29.1745 108.67 28.9529C107.998 28.7312 107.416 28.4208 106.879 27.9774C106.386 27.534 105.983 27.002 105.669 26.3369C105.356 25.6718 105.221 24.8737 105.221 23.987C105.221 23.1889 105.445 22.4351 105.893 21.7257C106.341 21.0163 107.058 20.3512 107.998 19.7749C108.984 19.1985 110.238 18.7551 111.806 18.4004C113.374 18.0457 115.3 17.8683 117.584 17.8683V16.3165C117.584 14.7646 117.271 13.5675 116.599 12.7694C115.927 11.9713 114.941 11.5723 113.642 11.5723C112.791 11.5723 112.075 11.661 111.448 11.8827C110.865 12.1043 110.328 12.326 109.925 12.5921C109.477 12.8581 109.118 13.1241 108.805 13.3015C108.491 13.5232 108.178 13.6118 107.864 13.6118C107.64 13.6118 107.416 13.5675 107.237 13.4345C107.058 13.3015 106.923 13.1685 106.789 12.9911L106.162 11.8827C107.282 10.8185 108.491 10.0205 109.745 9.48839C111.044 8.95634 112.478 8.69031 114.001 8.69031C115.121 8.69031 116.151 8.86766 117.002 9.22237C117.853 9.57707 118.615 10.1091 119.197 10.7742C119.779 11.4393 120.227 12.2374 120.541 13.1685C120.854 14.0996 120.989 15.1193 120.989 16.2278V28.9972H121.168ZM111.985 26.869C112.612 26.869 113.194 26.8246 113.687 26.6916C114.225 26.5586 114.673 26.3812 115.165 26.1596C115.613 25.9379 116.061 25.6718 116.464 25.3171C116.868 24.9624 117.271 24.6077 117.674 24.2087V20.0852C116.061 20.0852 114.673 20.1739 113.508 20.3956C112.388 20.6173 111.447 20.8833 110.731 21.1937C110.014 21.504 109.477 21.9031 109.163 22.3465C108.849 22.7898 108.67 23.2776 108.67 23.854C108.67 24.386 108.76 24.8294 108.939 25.2284C109.118 25.6275 109.342 25.9379 109.656 26.1596C109.969 26.4256 110.283 26.6029 110.686 26.6916C111.089 26.7803 111.492 26.869 111.985 26.869Z" fill="#B0B4D4"/>
<path d="M127.305 0V28.9972H123.766V0H127.305Z" fill="#B0B4D4"/>
</svg>
