<svg width="134" height="37" viewBox="0 0 134 37" fill="none" xmlns="http://www.w3.org/2000/svg">
<path d="M54.451 24.2328V22.2327C53.4224 23.8328 51.6508 24.8043 49.765 24.8043C46.4504 24.8043 44.1646 22.2327 44.1646 18.6895V9.4317H48.5077V17.9466C48.5077 19.7182 49.5364 21.0326 51.2508 21.0326C52.9652 21.0326 54.3368 19.6611 54.3368 17.7752V9.4317H58.6799V24.2328H54.451Z" fill="white"/>
<path d="M71.6523 24.8043C69.6522 24.8043 67.9377 23.9471 66.7948 22.4613V30.9191H62.4516V9.4317H66.7376V11.2033C67.9377 9.71744 69.6522 8.86023 71.6523 8.86023C75.7669 8.86023 78.6814 12.1748 78.6814 16.8608C78.6814 21.5469 75.7669 24.8043 71.6523 24.8043ZM74.3382 16.8608C74.3382 14.5178 72.6809 12.8034 70.4522 12.8034C68.2235 12.8034 66.5662 14.5178 66.5662 16.8608C66.5662 19.2039 68.1663 20.9183 70.4522 20.9183C72.7381 20.9183 74.3382 19.2039 74.3382 16.8608Z" fill="white"/>
<path d="M85.9963 9.4317V11.4319C87.0249 9.83173 88.7965 8.86023 90.6824 8.86023C93.9969 8.86023 96.2828 11.4319 96.2828 14.975V24.2328H91.9396V15.775C91.9396 14.0035 90.9109 12.6891 89.1965 12.6891C87.4821 12.6891 86.1106 14.0606 86.1106 15.9465V24.29H81.7674V9.4317H85.9963Z" fill="white"/>
<path d="M109.77 24.2328V22.2327C108.741 23.8328 106.969 24.8043 105.083 24.8043C101.769 24.8043 99.483 22.2327 99.483 18.6895V9.4317H103.826V17.9466C103.826 19.7182 104.855 21.0326 106.569 21.0326C108.284 21.0326 109.655 19.6611 109.655 17.7752V9.4317H113.998V24.2328H109.77Z" fill="white"/>
<path d="M126.971 24.8043C124.971 24.8043 123.256 23.9471 122.113 22.4613V30.9191H117.77V9.4317H122.056V11.2033C123.256 9.71744 124.971 8.86023 126.971 8.86023C131.085 8.86023 134 12.1748 134 16.8608C134 21.5469 131.085 24.8043 126.971 24.8043ZM129.657 16.8608C129.657 14.5178 128 12.8034 125.771 12.8034C123.542 12.8034 121.885 14.5178 121.885 16.8608C121.885 19.2039 123.485 20.9183 125.771 20.9183C128.057 20.9183 129.657 19.2039 129.657 16.8608Z" fill="white"/>
<path d="M27.5985 0.00965158C27.5985 0.00965158 27.5985 -0.0120645 27.5985 0.00965158C22.5169 0.00965158 18.4065 3.96197 18.4065 8.84808V14.9937C18.4065 17.4042 16.4642 19.4455 13.9799 19.5324C11.3601 19.6192 9.21454 17.5997 9.21454 15.1023C9.21454 19.9233 13.2346 23.8539 18.2258 23.9407C23.3977 24.0493 27.6211 19.8798 27.6211 14.9069V0.00965158H27.5985Z" fill="url(#paint0_linear_316_449)"/>
<path d="M0 36.08C5.08156 36.08 9.19197 32.1277 9.19197 27.2416V8.86981C9.19197 6.41589 11.2472 4.43973 13.7992 4.43973C16.3287 4.43973 18.4065 6.41589 18.4065 8.86981C18.4065 3.98369 14.2961 0.0313721 9.21455 0.0313721C4.133 0.0313721 0.0225844 3.98369 0.0225844 8.86981V36.08H0Z" fill="url(#paint1_linear_316_449)"/>
<defs>
<linearGradient id="paint0_linear_316_449" x1="18.4007" y1="-0.00138018" x2="18.4007" y2="23.9648" gradientUnits="userSpaceOnUse">
<stop stop-color="#7727E1" stop-opacity="0.4"/>
<stop offset="1" stop-color="#7727E1"/>
</linearGradient>
<linearGradient id="paint1_linear_316_449" x1="9.19777" y1="-0.00137573" x2="9.19777" y2="36.0694" gradientUnits="userSpaceOnUse">
<stop stop-color="#62D4A1"/>
<stop offset="1" stop-color="#62D4A1" stop-opacity="0.2"/>
</linearGradient>
</defs>
</svg>
