<svg width="132" height="27" viewBox="0 0 132 27" fill="none" xmlns="http://www.w3.org/2000/svg">
<g clip-path="url(#clip0_238_1591)">
<path d="M13.5399 21.8427C13.7869 21.8427 13.9105 21.76 14.034 21.5531L19.6204 11.073C20.2793 9.83198 20.9518 8.45302 21.2812 7.79112C21.3224 7.66701 21.446 7.70838 21.446 7.79112V26.3795C21.446 26.5863 21.5695 26.7104 21.7754 26.7104H25.248C25.4539 26.7104 25.5774 26.5863 25.5774 26.3795V1.37896C25.5774 1.17212 25.4539 1.04801 25.248 1.04801H20.691C20.4028 1.04801 20.2381 1.17212 20.1146 1.37896L12.881 15.6374C12.8399 15.7201 12.7987 15.7201 12.7575 15.6374L5.51025 1.37896C5.38672 1.17212 5.22201 1.04801 4.93376 1.04801H0.376784C0.170896 1.03422 0.0473633 1.15833 0.0473633 1.37896V26.3795C0.0473633 26.5863 0.170896 26.7104 0.376784 26.7104H3.84942C4.05531 26.7104 4.17884 26.5863 4.17884 26.3795V7.77733C4.17884 7.69459 4.30238 7.65322 4.34355 7.77733C4.67297 8.43923 5.33182 9.81819 6.00438 11.0593L11.5908 21.5393C11.7143 21.7462 11.8379 21.8289 12.0849 21.8289H13.5399V21.8427ZM68.0727 0.413688C68.0727 0.206844 67.9491 0.0827376 67.7432 0.0827376H64.2706C64.0647 0.0827376 63.9412 0.206844 63.9412 0.413688V8.60471C63.9412 8.72881 63.9 8.77018 63.7765 8.72881C62.2392 8.06691 60.798 7.69459 59.1371 7.69459C54.0037 7.69459 50.1879 11.1834 50.1879 17.1818C50.1879 23.9249 54.2096 27 58.794 27C60.949 27 62.651 26.4209 64.3804 25.166L67.2354 26.6277C67.7295 26.8759 68.0589 26.6277 68.0589 26.1726V0.413688H68.0727ZM29.4481 17.2232C29.4481 24.1732 34.0875 27 38.7268 27C41.4171 27 43.9426 26.2554 46.0976 24.6282C46.3035 24.4627 46.3447 24.3386 46.2211 24.0904L45.1093 21.9668C44.9858 21.7186 44.8211 21.7186 44.6152 21.8427C42.6249 23.001 40.9778 23.5526 38.9876 23.5526C36.6268 23.5526 33.9365 22.3529 33.5659 18.4367C33.5659 18.3953 33.5659 18.3126 33.6894 18.3126H46.6466C47.0584 18.3126 47.0172 17.6093 47.0172 16.975C47.0172 10.2732 43.0367 7.69459 38.617 7.69459C33.4149 7.69459 29.4481 11.142 29.4481 17.2232ZM89.6085 23.5388C87.8653 23.5388 86.6712 22.8769 86.1359 21.6635C85.8888 21.1257 85.7653 20.4224 85.7653 19.333V8.27376C85.7653 8.06691 85.6418 7.94281 85.4359 7.94281H81.9632C81.7573 7.94281 81.6338 8.06691 81.6338 8.27376V19.4985C81.6338 21.2498 81.8809 22.4081 82.2926 23.3734C83.4044 25.8279 85.8065 26.9862 88.9634 26.9862C91.3243 26.9862 93.1086 26.4071 94.8793 25.1522L97.7342 26.6139C98.2284 26.8621 98.5578 26.6139 98.5578 26.1589V8.27376C98.5578 8.06691 98.4342 7.94281 98.2284 7.94281H94.7557C94.5498 7.94281 94.4263 8.06691 94.4263 8.27376V19.8019C94.4263 20.8361 94.3851 21.3049 93.7263 21.9668C92.4223 23.2079 91.0497 23.5388 89.6085 23.5388ZM54.3743 17.2232C54.3743 13.2242 56.5704 11.1558 59.343 11.1558C60.7568 11.1558 62.0333 11.4867 63.1039 12.452C63.8451 13.1139 63.9275 13.6931 63.9275 15.1134V19.8156C63.9275 20.8499 63.8863 21.3187 63.2274 21.9806C61.9372 23.2217 60.5784 23.5664 59.3293 23.5664C57.1469 23.5388 54.3743 22.1323 54.3743 17.2232ZM72.9179 26.3657C72.9179 26.5725 73.0414 26.6967 73.2473 26.6967H76.7199C76.9258 26.6967 77.0494 26.5725 77.0494 26.3657V8.27376C77.0494 8.06691 76.9258 7.94281 76.7199 7.94281H73.2473C73.0414 7.94281 72.9179 8.06691 72.9179 8.27376V26.3657ZM33.7031 14.8928C34.1149 12.521 35.8581 10.9765 38.5072 10.9765C41.1563 10.9765 42.7759 12.8105 42.7759 14.9755C42.7759 15.0582 42.7348 15.0996 42.6524 15.0996H33.8404C33.662 15.0996 33.7031 14.9341 33.7031 14.8928ZM72.5473 2.33044C72.5473 3.62666 73.6179 4.66088 74.9905 4.66088C76.3631 4.66088 77.4337 3.62666 77.4337 2.33044C77.4337 1.03422 76.3494 0 74.9905 0C73.6179 0 72.5473 1.03422 72.5473 2.33044ZM127.821 26.3657C127.821 26.5725 127.945 26.6967 128.151 26.6967H131.623C131.829 26.6967 131.953 26.5725 131.953 26.3657V15.3892C131.953 13.2656 131.623 11.9418 131.088 10.8524C129.935 8.64608 127.698 7.69459 124.966 7.69459C122.482 7.69459 120.203 8.56334 118.419 10.3146C117.088 8.56334 115.152 7.69459 112.791 7.69459C110.554 7.69459 108.77 8.27376 107.082 9.52861L104.227 8.06691C103.732 7.8187 103.403 8.06691 103.403 8.52197V26.3657C103.403 26.5725 103.527 26.6967 103.732 26.6967H107.205C107.411 26.6967 107.534 26.5725 107.534 26.3657V14.8928C107.534 13.8172 107.617 13.307 108.152 12.7278C109.058 11.7349 110.431 11.1834 111.831 11.1834C114.15 11.1834 115.592 12.521 115.592 14.9617V26.3657C115.592 26.5725 115.715 26.6967 115.921 26.6967H119.394C119.6 26.6967 119.723 26.5725 119.723 26.3657V14.8928C119.723 13.8172 119.805 13.307 120.341 12.7278C121.247 11.7349 122.619 11.1834 124.019 11.1834C125.557 11.1834 126.709 11.7625 127.327 12.8933C127.615 13.4724 127.78 14.2309 127.78 15.2651V26.3657H127.821Z" fill="#B0B4D4"/>
</g>
<defs>
<clipPath id="clip0_238_1591">
<rect width="132" height="27" fill="white"/>
</clipPath>
</defs>
</svg>
