<svg width="158" height="46" viewBox="0 0 158 46" fill="none" xmlns="http://www.w3.org/2000/svg">
<path d="M67.5175 32.0773C65.5338 32.0773 63.8589 31.6585 62.4809 30.7983C61.103 29.9493 60.1289 28.7721 59.5825 27.2554L62.4928 25.6367C63.3125 27.844 65.023 28.9419 67.6007 28.9419C68.8598 28.9419 69.8102 28.7042 70.4516 28.2401C71.0931 27.776 71.4257 27.1535 71.4257 26.3611C71.4257 25.5801 71.0812 24.9689 70.3922 24.5387C69.7032 24.1086 68.4916 23.6445 66.7454 23.1352C64.9636 22.6258 63.5263 22.0372 62.4216 21.3467C61.0911 20.4525 60.4259 19.1395 60.4259 17.3963C60.4259 15.6531 61.0674 14.2835 62.3622 13.2761C63.6332 12.2461 65.1893 11.7367 67.0305 11.7367C68.6579 11.7367 70.0952 12.1102 71.3306 12.8686C72.5779 13.627 73.5282 14.6797 74.1934 16.0493L71.3425 17.6227C70.4754 15.789 69.038 14.8834 67.0186 14.8834C66.0446 14.8834 65.2606 15.0985 64.6666 15.54C64.0846 15.9814 63.7876 16.57 63.7876 17.3171C63.7876 18.0415 64.0846 18.6188 64.6666 19.0376C65.2487 19.4564 66.3415 19.8979 67.9333 20.3733C68.9074 20.6902 69.4775 20.8826 69.632 20.9279C69.8814 21.0071 70.3922 21.1882 71.1643 21.4825C71.7939 21.7202 72.2928 21.9919 72.6611 22.2636C74.1934 23.4068 74.8943 24.7425 74.7755 26.2932C74.7755 28.0703 74.0984 29.4739 72.7442 30.5266C71.4732 31.568 69.7151 32.0773 67.5175 32.0773Z" fill="#B0B4D4"/>
<path d="M85.6208 17.3511C87.6164 17.3511 89.3389 18.0755 90.7881 19.5017C92.2135 20.9166 92.9381 22.6598 92.9381 24.7086C92.9381 26.78 92.2254 28.5232 90.7881 29.9494C89.3626 31.3643 87.6283 32.0774 85.6208 32.0774C83.4114 32.0774 81.6889 31.2964 80.4773 29.723V37.3069H77.3057V17.7133H80.4773V19.7281C81.6771 18.1434 83.3876 17.3511 85.6208 17.3511ZM81.8077 27.9346C82.6867 28.7722 83.7915 29.191 85.1338 29.191C86.4642 29.191 87.5689 28.7722 88.4598 27.9346C89.3389 27.0743 89.7784 25.999 89.7784 24.7086C89.7784 23.4182 89.3389 22.3542 88.4598 21.5166C87.5808 20.6563 86.4761 20.2262 85.1338 20.2262C83.8034 20.2262 82.6986 20.6563 81.8077 21.5166C80.9287 22.3542 80.4892 23.4182 80.4892 24.7086C80.4773 25.9876 80.9168 27.0517 81.8077 27.9346Z" fill="#B0B4D4"/>
<path d="M107.228 19.6941V17.7019H110.4V31.7151H107.228V29.7003C106.029 31.285 104.318 32.0774 102.085 32.0774C100.065 32.0774 98.343 31.3642 96.9175 29.9493C95.4921 28.5344 94.7675 26.78 94.7675 24.7085C94.7675 22.6371 95.4802 20.894 96.9175 19.4677C98.343 18.0528 100.077 17.3397 102.085 17.3397C104.318 17.351 106.029 18.1321 107.228 19.6941ZM99.2576 27.9345C100.137 28.7721 101.241 29.191 102.584 29.191C103.914 29.191 105.019 28.7721 105.91 27.9345C106.789 27.0743 107.228 25.9989 107.228 24.7085C107.228 23.4181 106.789 22.3541 105.91 21.5165C105.031 20.6563 103.926 20.2261 102.584 20.2261C101.253 20.2261 100.149 20.6563 99.2576 21.5165C98.3786 22.3541 97.9391 23.4181 97.9391 24.7085C97.9391 25.9876 98.3786 27.0516 99.2576 27.9345Z" fill="#B0B4D4"/>
<path d="M120.01 27.8779L123.775 17.7133H127.161L121.518 32.1679C120.105 35.7901 117.717 37.5106 114.344 37.3182V34.4884C115.318 34.5449 116.114 34.3525 116.719 33.8998C117.325 33.447 117.836 32.7339 118.252 31.7491L118.394 31.4661L112.17 17.7133H115.638L120.01 27.8779Z" fill="#B0B4D4"/>
<path d="M135.262 32.0774C133.053 32.0774 131.2 31.3642 129.703 29.9493C128.23 28.5118 127.493 26.7686 127.493 24.7085C127.493 22.6145 128.23 20.8713 129.703 19.4677C131.188 18.0528 133.041 17.3397 135.262 17.3397C136.688 17.3397 137.994 17.668 139.17 18.3245C140.346 18.981 141.225 19.8526 141.819 20.9619L139.087 22.4787C138.755 21.8108 138.244 21.2788 137.579 20.894C136.901 20.5091 136.129 20.3167 135.238 20.3167C133.944 20.3167 132.863 20.7355 131.972 21.5731C131.105 22.4334 130.677 23.4747 130.677 24.7085C130.677 25.9423 131.105 26.9837 131.972 27.844C132.851 28.6816 133.944 29.1004 135.238 29.1004C136.106 29.1004 136.878 28.908 137.579 28.5231C138.279 28.1383 138.802 27.6176 139.147 26.9384L141.879 28.4212C141.249 29.5419 140.346 30.4248 139.158 31.0813C137.971 31.7491 136.664 32.0774 135.262 32.0774Z" fill="#B0B4D4"/>
<path d="M157.891 25.999H146.191C146.428 27.0403 146.963 27.8553 147.794 28.4326C148.626 29.0099 149.659 29.3042 150.895 29.3042C152.558 29.3042 153.829 28.7269 154.684 27.5723L157.297 29.0325C155.872 31.07 153.722 32.0887 150.859 32.0887C148.483 32.0887 146.559 31.3982 145.074 30.0173C143.601 28.6137 142.865 26.8479 142.865 24.7199C142.865 22.6485 143.589 20.9053 145.038 19.4791C146.464 18.0642 148.329 17.3511 150.621 17.3511C152.76 17.3511 154.518 18.0755 155.908 19.5017C157.297 20.9393 157.998 22.6824 157.998 24.7425C158.01 25.1161 157.963 25.5349 157.891 25.999ZM146.167 23.5314H154.803C154.589 22.4334 154.102 21.5845 153.354 20.9846C152.593 20.3846 151.679 20.0903 150.61 20.0903C149.434 20.0903 148.46 20.3959 147.676 21.0185C146.88 21.6297 146.381 22.4674 146.167 23.5314Z" fill="#B0B4D4"/>
<path d="M24.1363 45.2416C21.8674 45.2416 19.6105 44.4153 17.888 42.774L3.38405 28.9532C-0.0607961 25.6707 -0.0607961 20.328 3.38405 17.0454L17.888 3.22463C21.3329 -0.0579486 26.9397 -0.0579486 30.3845 3.22463L44.8885 17.0454C48.3333 20.328 48.3333 25.6707 44.8885 28.9532L30.3845 42.774C28.6621 44.4153 26.4051 45.2416 24.1363 45.2416ZM24.1363 3.8585C22.7108 3.8585 21.2735 4.37919 20.1806 5.42056L5.67665 19.23C3.50284 21.3014 3.50284 24.6859 5.67665 26.7573L20.1806 40.5781C22.3545 42.6495 25.9062 42.6495 28.08 40.5781L42.584 26.7573C44.7578 24.6859 44.7578 21.3014 42.584 19.23L28.0919 5.40924C26.9991 4.37919 25.5617 3.8585 24.1363 3.8585Z" fill="#B0B4D4"/>
<path d="M47.0861 1.14191C44.9479 -0.895555 40.8022 -0.205081 34.7559 3.20201C33.8769 3.70005 32.986 4.23205 32.0594 4.82065L34.3995 7.05054C35.0766 6.63173 35.7418 6.23556 36.3952 5.86202C40.3389 3.64346 42.6434 3.10013 43.8194 3.10013C44.3421 3.10013 44.6509 3.21333 44.7697 3.32652C45.1617 3.70005 45.4706 5.88466 42.1089 11.3066C41.7169 11.9291 41.313 12.563 40.8616 13.2082C40.2795 14.0571 39.65 14.9174 38.9847 15.8003C38.177 16.8643 37.3098 17.9396 36.3714 19.0376C34.0788 21.7316 31.4536 24.5161 28.5908 27.244C24.5639 31.0813 20.4301 34.477 16.5814 37.1484C15.6548 37.7936 14.752 38.3935 13.8611 38.9368C13.184 39.3556 12.5188 39.7518 11.8655 40.1253C6.17556 43.3287 3.88296 43.0457 3.49096 42.6608C3.08708 42.2873 2.79011 40.1027 6.15181 34.6808C6.53193 34.0582 6.94769 33.4243 7.39908 32.7791L5.05896 30.5493C4.45314 31.4208 3.88296 32.2811 3.36029 33.1074C-0.215219 38.8689 -0.939825 42.8193 1.19835 44.8568C1.99423 45.6151 3.0752 46 4.42938 46C6.69823 46 9.7392 44.936 13.5285 42.7967C14.4076 42.2986 15.2985 41.7666 16.2131 41.178C17.0922 40.612 17.9949 40.0121 18.9096 39.3669C19.9193 38.6651 20.9409 37.9068 21.9743 37.1144C24.9203 34.8506 27.9375 32.2585 30.8953 29.44C34.8866 25.6254 38.4621 21.7089 41.313 18.0189C41.9901 17.1473 42.6197 16.287 43.2136 15.4494C43.8313 14.5778 44.3896 13.7176 44.9123 12.8913C48.4997 7.11846 49.2243 3.16805 47.0861 1.14191Z" fill="#B0B4D4"/>
</svg>
