<svg width="19" height="19" viewBox="0 0 19 19" fill="none" xmlns="http://www.w3.org/2000/svg">
<path d="M8.56215 1.53451C8.88431 0.663887 10.1157 0.663888 10.4379 1.53451L12.1764 6.23281C12.2777 6.50653 12.4935 6.72234 12.7672 6.82362L17.4655 8.56215C18.3361 8.88431 18.3361 10.1157 17.4655 10.4379L12.7672 12.1764C12.4935 12.2777 12.2777 12.4935 12.1764 12.7672L10.4379 17.4655C10.1157 18.3361 8.88431 18.3361 8.56215 17.4655L6.82362 12.7672C6.72234 12.4935 6.50653 12.2777 6.23281 12.1764L1.53451 10.4379C0.663887 10.1157 0.663888 8.88431 1.53451 8.56215L6.23281 6.82362C6.50653 6.72234 6.72234 6.50653 6.82362 6.23281L8.56215 1.53451Z" fill="#00D99E"/>
</svg>
