<svg width="198" height="19" viewBox="0 0 198 19" fill="none" xmlns="http://www.w3.org/2000/svg">
<path d="M52.8317 17.6055C51.7211 17.2569 50.9278 16.5596 50.2932 15.8624L50.9278 14.4679C51.5624 15.1651 52.3557 15.6881 53.3076 16.0367C54.2596 16.3853 55.2115 16.5596 56.3221 16.5596C57.7499 16.5596 58.8605 16.211 59.4951 15.6881C60.2884 15.1651 60.6057 14.2936 60.6057 13.422C60.6057 12.7248 60.4471 12.2018 59.9711 11.6789C59.6538 11.3303 59.1778 10.9817 58.5432 10.633C57.9086 10.633 57.1153 10.4587 56.1634 10.1101C54.8942 9.76147 53.9422 9.41285 53.3076 9.06422C52.673 8.7156 52.0384 8.19267 51.4038 7.66973C50.9278 6.97248 50.6105 6.10092 50.6105 5.05505C50.6105 4.18349 50.7692 3.31193 51.2451 2.61468C51.7211 1.91744 52.3557 1.22019 53.149 0.871564C53.9422 0.52294 55.2115 0.174316 56.4807 0.174316C57.4326 0.174316 58.2259 0.348628 59.1778 0.52294C60.1297 0.871564 60.7644 1.22019 61.399 1.74312L60.7644 3.31193C60.1297 2.789 59.3365 2.44037 58.5432 2.26606C57.7499 2.09175 56.9567 1.91744 56.3221 1.91744C54.8942 1.91744 53.7836 2.26606 53.149 2.789C52.673 3.31193 52.3557 4.18349 52.3557 5.05505C52.3557 5.7523 52.5144 6.27523 52.9903 6.79817C53.3076 7.14679 53.9422 7.49542 54.4182 7.84404C55.0528 8.01835 55.8461 8.36698 56.798 8.54129C57.9086 8.88991 58.8605 9.23854 59.6538 9.41285C60.4471 9.76147 60.923 10.1101 61.5576 10.8073C62.0336 11.5046 62.3509 12.3762 62.3509 13.422C62.3509 14.2936 62.1922 15.1651 61.7163 15.8624C61.2403 16.5596 60.6057 17.2569 59.6538 17.6055C58.7019 17.9541 57.5913 18.3028 56.3221 18.3028C55.0528 18.3028 53.9422 18.1284 52.8317 17.6055Z" fill="#B0B4D4"/>
<path d="M69.0144 2.09176H63.3028V0.522957H76.3124V2.09176H70.6009V18.1285H68.8557V2.09176H69.0144Z" fill="#B0B4D4"/>
<path d="M88.5288 13.422H79.4855L77.7403 18.1285H75.9951L83.2932 0.522957H85.0384L92.3365 18.1285H90.5913L88.5288 13.422ZM88.0528 11.8532L84.0865 2.44039L80.2788 11.8532H88.0528Z" fill="#B0B4D4"/>
<path d="M99.9519 12.0275V18.1285H98.2067V12.0275L91.7019 0.522957H93.6057L99.1586 10.4587L104.711 0.522957H106.298L99.9519 12.0275Z" fill="#B0B4D4"/>
<path d="M122.639 0.522957V18.1285H120.894V9.9358H110.899V18.1285H109.154V0.522957H110.899V8.36699H120.894V0.522957H122.639Z" fill="#B0B4D4"/>
<path d="M129.62 16.3853C128.51 14.9908 127.875 13.2477 127.875 10.633V0.522957H129.62V10.4587C129.62 12.5505 130.096 14.1193 130.889 14.9908C131.683 16.0367 132.952 16.5597 134.538 16.5597C136.125 16.5597 137.394 16.0367 138.187 14.9908C138.981 13.945 139.457 12.3762 139.457 10.4587V0.522957H141.043V10.633C141.043 13.0734 140.409 14.9908 139.298 16.3853C138.187 17.7798 136.442 18.3028 134.38 18.3028C132.317 18.3028 130.731 17.6055 129.62 16.3853Z" fill="#B0B4D4"/>
<path d="M162.779 0.522957V18.1285H161.192V4.0092L154.846 15.8624H154.053L147.707 4.0092V18.1285H146.12V0.522957H147.548L154.529 13.5964L161.51 0.522957H162.779Z" fill="#B0B4D4"/>
<path d="M178.168 13.422H169.125L167.221 18.1285H165.476L172.933 0.522957H174.678L181.976 18.1285H180.231L178.168 13.422ZM177.534 11.8532L173.726 2.44039L169.76 11.8532H177.534Z" fill="#B0B4D4"/>
<path d="M198 0.522957V18.1285H196.572L186.26 3.83488V18.1285H184.514V0.522957H185.942L196.255 14.8165V0.522957H198Z" fill="#B0B4D4"/>
<path d="M25.2259 13.422H10.1538L21.8942 11.3303C23.1634 11.156 25.2259 12.2019 25.2259 13.422Z" fill="#B0B4D4"/>
<path d="M28.8749 18.1284H2.06245C1.11053 18.1284 0.317261 17.2569 0.317261 16.211C0.317261 15.6881 0.475915 15.1651 0.951876 14.8165L14.7548 2.61467L14.9134 2.96329C16.1826 4.70641 16.024 7.32109 14.2788 8.71559L8.40861 14.1193H25.2259C27.1298 14.1193 28.8749 15.8624 28.8749 18.1284Z" fill="#B0B4D4"/>
<path d="M21.4182 10.8074L11.1057 12.5505L18.8798 9.58718C19.8317 9.41286 21.4182 9.76149 21.4182 10.8074Z" fill="#B0B4D4"/>
<path d="M22.8461 5.05507H37.9182L26.1778 7.14681C25.0673 7.32113 22.8461 6.44957 22.8461 5.05507Z" fill="#B0B4D4"/>
<path d="M19.3557 0.348633H46.0096C46.9615 0.348633 47.7548 1.22019 47.7548 2.26606C47.7548 2.789 47.5961 3.31194 47.1201 3.66056L33.3173 15.8624L33.1586 15.6881C31.8894 13.945 32.048 11.3303 33.7932 9.93579L39.8221 4.53212H23.0048C20.9423 4.53212 19.3557 2.61469 19.3557 0.348633Z" fill="#B0B4D4"/>
<path d="M26.8124 7.66975L37.1249 5.92663L29.3509 8.88993C28.399 9.23856 26.8124 8.71562 26.8124 7.66975Z" fill="#B0B4D4"/>
</svg>
