<svg width="1024" height="4063" viewBox="0 0 1024 4063" fill="none" xmlns="http://www.w3.org/2000/svg">
<g filter="url(#filter0_f_238_1518)">
<path d="M797.402 207.689C797.402 207.689 -60.1723 524.618 -69.3302 867.713C-236.96 867.713 -278 471.149 -278 303.52C-278 135.89 -142.11 0 25.5197 0C193.149 0 797.402 40.0593 797.402 207.689Z" fill="#7727E1" fill-opacity="0.4"/>
</g>
<g filter="url(#filter1_f_238_1518)">
<path d="M-150.492 1249.73V883.74H-129.56C-97.1802 883.74 -7.56335 975.319 97.0986 1026.67C201.761 1078.02 266.847 1066.9 363.987 1114.32C441.698 1152.26 462.434 1207.76 463.089 1230.76C464.942 1259.32 457.594 1320.25 413.374 1335.42C358.099 1354.39 92.2419 1678.84 -85.0294 1676.88C-226.846 1675.31 -155.616 1277.64 -150.492 1249.73Z" fill="#7727E1" fill-opacity="0.4"/>
</g>
<g filter="url(#filter2_f_238_1518)">
<path d="M1267.98 2613.29L1267.98 2979.28L1247.05 2979.28C1214.67 2979.28 1125.05 2887.7 1020.39 2836.35C915.73 2785 850.644 2796.12 753.504 2748.69C675.793 2710.75 655.057 2655.26 654.402 2632.26C652.549 2603.69 659.897 2542.77 704.117 2527.6C759.392 2508.63 1025.25 2184.17 1202.52 2186.14C1344.34 2187.71 1273.11 2585.38 1267.98 2613.29Z" fill="#7727E1" fill-opacity="0.4"/>
</g>
<g filter="url(#filter3_f_238_1518)">
<circle cx="74.5801" cy="565.829" r="136.715" fill="#1BF1AD" fill-opacity="0.5"/>
</g>
<g filter="url(#filter4_f_238_1518)">
<circle cx="973.038" cy="818.653" r="167.132" fill="#1BF1AD" fill-opacity="0.5"/>
</g>
<g filter="url(#filter5_f_238_1518)">
<circle cx="973.156" cy="3644.87" r="167.132" fill="#1BF1AD" fill-opacity="0.5"/>
</g>
<g filter="url(#filter6_f_238_1518)">
<path d="M893.79 1337.96C981.928 1271.53 1131.84 1153.12 1195.77 1102.22V1965.03C1166.39 1920.38 1034.16 1864.27 998.593 1849.93C990.712 1846.75 943.371 1823.72 678.501 1727.85C429.194 1637.6 517.396 1570.33 600.477 1517.74C661.524 1485.49 805.651 1404.38 893.79 1337.96Z" fill="#7727E1" fill-opacity="0.4"/>
</g>
<g filter="url(#filter7_f_238_1518)">
<circle cx="1096.02" cy="1697.16" r="146.2" fill="#1BF1AD" fill-opacity="0.5"/>
</g>
<g filter="url(#filter8_f_238_1518)">
<path d="M1113.68 202.783H1186.61H1210.82L1242.22 1236.32C1229.9 1263.36 1201.53 1284.14 1186.61 1150.95C1167.97 984.477 1039.76 970.413 950.797 890.608C861.835 810.803 795.767 897.477 646.623 820.288C527.309 758.538 613.916 695.784 672.135 672.126C721.849 643.671 831.94 568.969 874.59 497.799C917.24 426.628 1051.75 271.467 1113.68 202.783Z" fill="#7727E1" fill-opacity="0.4"/>
</g>
<g filter="url(#filter9_f_238_1518)">
<path d="M1113.8 3029H1186.73H1210.94L1242.33 4062.54C1230.01 4089.57 1201.65 4110.35 1186.73 3977.17C1168.09 3810.69 1039.88 3796.63 950.916 3716.83C861.953 3637.02 795.885 3723.69 646.742 3646.51C527.427 3584.76 614.035 3522 672.253 3498.34C721.967 3469.89 832.059 3395.19 874.709 3324.02C917.358 3252.85 1051.87 3097.68 1113.8 3029Z" fill="#7727E1" fill-opacity="0.4"/>
</g>
<g filter="url(#filter10_f_238_1518)">
<circle cx="41.219" cy="1363.22" r="162.226" fill="#1BF1AD" fill-opacity="0.5"/>
</g>
<g filter="url(#filter11_f_238_1518)">
<ellipse cx="947.526" cy="2754.25" rx="143.583" ry="143.583" transform="rotate(-180 947.526 2754.25)" fill="#1BF1AD" fill-opacity="0.5"/>
</g>
<g filter="url(#filter12_f_238_1518)">
<path d="M216.855 1924.15C30.5567 1918.13 -52.6496 1814.14 -70.9655 1762.9C-76.7437 2042 -84.8332 2576.06 -70.9655 2479.51C-53.6308 2358.82 383.66 2232.9 484.724 2207.71C585.789 2182.53 593.638 2176.64 624.71 2114.5C649.567 2064.78 594.946 2017.25 564.529 1999.7C526.262 1977.02 403.153 1930.16 216.855 1924.15Z" fill="#7727E1" fill-opacity="0.4"/>
</g>
<g filter="url(#filter13_f_238_1518)">
<path d="M137.329 3665.22C-18.6117 3659.2 -88.2594 3555.23 -103.591 3504C-108.427 3783.05 -115.199 4317.02 -103.591 4220.48C-89.0807 4099.81 276.953 3973.92 361.549 3948.74C446.144 3923.56 452.715 3917.67 478.723 3855.54C499.53 3805.83 453.81 3758.31 428.349 3740.76C396.318 3718.08 293.27 3671.23 137.329 3665.22Z" fill="#7727E1" fill-opacity="0.4"/>
</g>
<g filter="url(#filter14_f_238_1518)">
<path d="M-150.492 2978.99V2613H-129.56C-97.1802 2613 -7.56335 2704.58 97.0986 2755.93C201.761 2807.28 266.847 2796.16 363.987 2843.58C441.698 2881.52 462.434 2937.02 463.089 2960.02C464.942 2988.58 457.594 3049.51 413.374 3064.68C358.099 3083.65 92.2419 3408.1 -85.0294 3406.14C-226.846 3404.57 -155.616 3006.9 -150.492 2978.99Z" fill="#7727E1" fill-opacity="0.4"/>
</g>
<g filter="url(#filter15_f_238_1518)">
<circle cx="41.219" cy="3092.48" r="162.226" fill="#1BF1AD" fill-opacity="0.5"/>
</g>
<g filter="url(#filter16_f_238_1518)">
<circle cx="97.8019" cy="2243.36" r="123.959" fill="#1BF1AD" fill-opacity="0.5"/>
</g>
<g filter="url(#filter17_f_238_1518)">
<circle cx="66.8019" cy="3984.46" r="123.959" fill="#1BF1AD" fill-opacity="0.5"/>
</g>
<defs>
<filter id="filter0_f_238_1518" x="-633" y="-355" width="1785.4" height="1577.71" filterUnits="userSpaceOnUse" color-interpolation-filters="sRGB">
<feFlood flood-opacity="0" result="BackgroundImageFix"/>
<feBlend mode="normal" in="SourceGraphic" in2="BackgroundImageFix" result="shape"/>
<feGaussianBlur stdDeviation="177.5" result="effect1_foregroundBlur_238_1518"/>
</filter>
<filter id="filter1_f_238_1518" x="-527.885" y="528.74" width="1346.23" height="1503.15" filterUnits="userSpaceOnUse" color-interpolation-filters="sRGB">
<feFlood flood-opacity="0" result="BackgroundImageFix"/>
<feBlend mode="normal" in="SourceGraphic" in2="BackgroundImageFix" result="shape"/>
<feGaussianBlur stdDeviation="177.5" result="effect1_foregroundBlur_238_1518"/>
</filter>
<filter id="filter2_f_238_1518" x="299.146" y="1831.13" width="1346.23" height="1503.15" filterUnits="userSpaceOnUse" color-interpolation-filters="sRGB">
<feFlood flood-opacity="0" result="BackgroundImageFix"/>
<feBlend mode="normal" in="SourceGraphic" in2="BackgroundImageFix" result="shape"/>
<feGaussianBlur stdDeviation="177.5" result="effect1_foregroundBlur_238_1518"/>
</filter>
<filter id="filter3_f_238_1518" x="-417.135" y="74.1141" width="983.429" height="983.429" filterUnits="userSpaceOnUse" color-interpolation-filters="sRGB">
<feFlood flood-opacity="0" result="BackgroundImageFix"/>
<feBlend mode="normal" in="SourceGraphic" in2="BackgroundImageFix" result="shape"/>
<feGaussianBlur stdDeviation="177.5" result="effect1_foregroundBlur_238_1518"/>
</filter>
<filter id="filter4_f_238_1518" x="450.906" y="296.521" width="1044.26" height="1044.26" filterUnits="userSpaceOnUse" color-interpolation-filters="sRGB">
<feFlood flood-opacity="0" result="BackgroundImageFix"/>
<feBlend mode="normal" in="SourceGraphic" in2="BackgroundImageFix" result="shape"/>
<feGaussianBlur stdDeviation="177.5" result="effect1_foregroundBlur_238_1518"/>
</filter>
<filter id="filter5_f_238_1518" x="451.024" y="3122.74" width="1044.26" height="1044.26" filterUnits="userSpaceOnUse" color-interpolation-filters="sRGB">
<feFlood flood-opacity="0" result="BackgroundImageFix"/>
<feBlend mode="normal" in="SourceGraphic" in2="BackgroundImageFix" result="shape"/>
<feGaussianBlur stdDeviation="177.5" result="effect1_foregroundBlur_238_1518"/>
</filter>
<filter id="filter6_f_238_1518" x="159.814" y="747.222" width="1390.96" height="1572.81" filterUnits="userSpaceOnUse" color-interpolation-filters="sRGB">
<feFlood flood-opacity="0" result="BackgroundImageFix"/>
<feBlend mode="normal" in="SourceGraphic" in2="BackgroundImageFix" result="shape"/>
<feGaussianBlur stdDeviation="177.5" result="effect1_foregroundBlur_238_1518"/>
</filter>
<filter id="filter7_f_238_1518" x="594.816" y="1195.96" width="1002.4" height="1002.4" filterUnits="userSpaceOnUse" color-interpolation-filters="sRGB">
<feFlood flood-opacity="0" result="BackgroundImageFix"/>
<feBlend mode="normal" in="SourceGraphic" in2="BackgroundImageFix" result="shape"/>
<feGaussianBlur stdDeviation="177.5" result="effect1_foregroundBlur_238_1518"/>
</filter>
<filter id="filter8_f_238_1518" x="231.882" y="-152.217" width="1365.33" height="1763.56" filterUnits="userSpaceOnUse" color-interpolation-filters="sRGB">
<feFlood flood-opacity="0" result="BackgroundImageFix"/>
<feBlend mode="normal" in="SourceGraphic" in2="BackgroundImageFix" result="shape"/>
<feGaussianBlur stdDeviation="177.5" result="effect1_foregroundBlur_238_1518"/>
</filter>
<filter id="filter9_f_238_1518" x="232" y="2674" width="1365.33" height="1763.56" filterUnits="userSpaceOnUse" color-interpolation-filters="sRGB">
<feFlood flood-opacity="0" result="BackgroundImageFix"/>
<feBlend mode="normal" in="SourceGraphic" in2="BackgroundImageFix" result="shape"/>
<feGaussianBlur stdDeviation="177.5" result="effect1_foregroundBlur_238_1518"/>
</filter>
<filter id="filter10_f_238_1518" x="-476.007" y="845.996" width="1034.45" height="1034.45" filterUnits="userSpaceOnUse" color-interpolation-filters="sRGB">
<feFlood flood-opacity="0" result="BackgroundImageFix"/>
<feBlend mode="normal" in="SourceGraphic" in2="BackgroundImageFix" result="shape"/>
<feGaussianBlur stdDeviation="177.5" result="effect1_foregroundBlur_238_1518"/>
</filter>
<filter id="filter11_f_238_1518" x="448.943" y="2255.66" width="997.166" height="997.166" filterUnits="userSpaceOnUse" color-interpolation-filters="sRGB">
<feFlood flood-opacity="0" result="BackgroundImageFix"/>
<feBlend mode="normal" in="SourceGraphic" in2="BackgroundImageFix" result="shape"/>
<feGaussianBlur stdDeviation="177.5" result="effect1_foregroundBlur_238_1518"/>
</filter>
<filter id="filter12_f_238_1518" x="-433.623" y="1407.9" width="1419.64" height="1438.13" filterUnits="userSpaceOnUse" color-interpolation-filters="sRGB">
<feFlood flood-opacity="0" result="BackgroundImageFix"/>
<feBlend mode="normal" in="SourceGraphic" in2="BackgroundImageFix" result="shape"/>
<feGaussianBlur stdDeviation="177.5" result="effect1_foregroundBlur_238_1518"/>
</filter>
<filter id="filter13_f_238_1518" x="-465" y="3149" width="1304" height="1438" filterUnits="userSpaceOnUse" color-interpolation-filters="sRGB">
<feFlood flood-opacity="0" result="BackgroundImageFix"/>
<feBlend mode="normal" in="SourceGraphic" in2="BackgroundImageFix" result="shape"/>
<feGaussianBlur stdDeviation="177.5" result="effect1_foregroundBlur_238_1518"/>
</filter>
<filter id="filter14_f_238_1518" x="-527.885" y="2258" width="1346.23" height="1503.15" filterUnits="userSpaceOnUse" color-interpolation-filters="sRGB">
<feFlood flood-opacity="0" result="BackgroundImageFix"/>
<feBlend mode="normal" in="SourceGraphic" in2="BackgroundImageFix" result="shape"/>
<feGaussianBlur stdDeviation="177.5" result="effect1_foregroundBlur_238_1518"/>
</filter>
<filter id="filter15_f_238_1518" x="-476.007" y="2575.26" width="1034.45" height="1034.45" filterUnits="userSpaceOnUse" color-interpolation-filters="sRGB">
<feFlood flood-opacity="0" result="BackgroundImageFix"/>
<feBlend mode="normal" in="SourceGraphic" in2="BackgroundImageFix" result="shape"/>
<feGaussianBlur stdDeviation="177.5" result="effect1_foregroundBlur_238_1518"/>
</filter>
<filter id="filter16_f_238_1518" x="-381.157" y="1764.41" width="957.918" height="957.918" filterUnits="userSpaceOnUse" color-interpolation-filters="sRGB">
<feFlood flood-opacity="0" result="BackgroundImageFix"/>
<feBlend mode="normal" in="SourceGraphic" in2="BackgroundImageFix" result="shape"/>
<feGaussianBlur stdDeviation="177.5" result="effect1_foregroundBlur_238_1518"/>
</filter>
<filter id="filter17_f_238_1518" x="-412.157" y="3505.5" width="957.918" height="957.918" filterUnits="userSpaceOnUse" color-interpolation-filters="sRGB">
<feFlood flood-opacity="0" result="BackgroundImageFix"/>
<feBlend mode="normal" in="SourceGraphic" in2="BackgroundImageFix" result="shape"/>
<feGaussianBlur stdDeviation="177.5" result="effect1_foregroundBlur_238_1518"/>
</filter>
</defs>
</svg>
