<svg width="141" height="33" viewBox="0 0 141 33" fill="none" xmlns="http://www.w3.org/2000/svg">
<path d="M10.5296 12.8295C16.7896 10.7428 17.8551 5.30695 17.056 0.309108C17.056 0.128774 17.2158 -3.65972e-05 17.3756 0.0514876C23.3692 2.88532 30.1086 9.06822 30.1086 18.3426C30.1086 25.4529 24.4081 31.7389 16.1236 31.7389C13.1675 31.8689 10.2508 31.0431 7.83385 29.3918C5.41691 27.7406 3.63738 25.358 2.77615 22.62C1.91491 19.882 2.02102 16.9446 3.07771 14.2714C4.1344 11.5982 6.0815 9.34149 8.6117 7.8574C8.77152 7.75435 8.98463 7.8574 8.98463 8.03773C9.06454 8.99093 9.33092 11.3868 10.4231 12.8295H10.5296V12.8295Z" fill="#B0B4D4"/>
<path d="M47.743 26.0971L48.1958 25.5818L49.6076 29.9099L49.4212 30.0902C48.3556 31.0434 46.7574 31.5329 44.7062 31.5329H44.6263C42.7617 31.5329 41.2966 31.0176 40.2843 30.0644C39.2721 29.0855 38.7393 27.617 38.7393 25.7622V13.9631H35.1432V9.19713H38.7393V3.45218H44.28V9.19713H48.6753V13.9631H44.2534V24.6029C44.2534 25.0923 44.3866 26.6638 45.9316 26.6638C46.7307 26.6638 47.4766 26.3805 47.743 26.0713V26.0971ZM50.6731 31.0434V9.22289H56.2138V31.0434H50.6731V31.0434ZM53.4169 0.309204C54.0743 0.309224 54.717 0.497457 55.264 0.850178C55.8109 1.2029 56.2377 1.70432 56.4905 2.29125C56.7433 2.87818 56.8108 3.52434 56.6844 4.14829C56.5581 4.77225 56.2436 5.34608 55.7806 5.79745C55.3176 6.24882 54.7268 6.55753 54.0826 6.68468C53.4385 6.81183 52.7698 6.75172 52.161 6.51193C51.5521 6.27214 51.0302 5.86341 50.6612 5.33724C50.2921 4.81107 50.0924 4.19102 50.0871 3.55523C50.0871 1.80341 51.6055 0.309204 53.4169 0.309204ZM71.1045 8.68189C75.8993 8.68189 78.5365 11.2066 78.5365 15.818V31.0176H72.9958V17.1061C72.8892 14.6329 71.6639 13.4994 69.0534 13.4994C66.7092 13.4994 64.8179 14.8906 63.8589 16.0756V31.0176H58.3182V9.24865H63.8589V11.5672C65.4572 10.073 68.0145 8.73341 71.1045 8.73341V8.68189ZM96.97 11.49V1.23664H102.511V31.0692H96.97V28.8021C96.1221 29.6669 95.1022 30.3569 93.9715 30.8307C92.8407 31.3044 91.6226 31.552 90.3904 31.5586C84.3436 31.5586 80.2946 26.973 80.2946 20.146C80.2946 13.2933 84.3436 8.70765 90.3904 8.70765C91.6253 8.7131 92.846 8.96273 93.9775 9.4412C95.109 9.91967 96.1273 10.6169 96.97 11.49ZM96.97 16.1014C96.3525 15.3236 95.5634 14.6888 94.6602 14.2431C93.7571 13.7974 92.7625 13.5522 91.7489 13.5252C88.3126 13.5252 86.0218 16.1787 86.0218 20.146C86.0218 24.0876 88.3126 26.7411 91.7489 26.7411C93.7468 26.7411 95.9311 25.7106 96.97 24.2164V16.1014ZM115.457 8.70765C122.01 8.70765 126.565 13.6024 126.565 20.5582V22.0267H109.809C110.369 25.0923 112.873 27.0503 116.283 27.0503C118.44 27.0503 120.811 26.1486 122.17 24.8347L122.542 24.5256L125.18 28.1838L124.913 28.4157C122.417 30.556 119.163 31.6819 115.83 31.5586C108.904 31.5586 104.029 26.8442 104.029 20.1203C103.975 18.6357 104.232 17.156 104.784 15.7699C105.336 14.3838 106.172 13.1198 107.242 12.0539C108.312 10.9881 109.593 10.1422 111.01 9.56719C112.426 8.99216 113.947 8.69979 115.483 8.70765H115.457ZM109.783 17.982H121.157C120.838 14.7102 118.041 13.216 115.457 13.216C111.568 13.216 110.103 16.0498 109.783 18.0078V17.982ZM139.964 8.70765H140.363V14.1177L139.884 14.0404C139.484 13.9631 138.978 13.9116 138.472 13.9116C136.687 13.9116 134.21 15.1224 133.278 16.4105V31.0176H127.737V9.22289H133.304V11.6445C135.142 9.78966 137.566 8.70765 139.964 8.70765V8.70765Z" fill="#B0B4D4"/>
</svg>
