<?xml version="1.0" encoding="utf-8"?>
<!-- Generator: Adobe Illustrator 25.2.0, SVG Export Plug-In . SVG Version: 6.00 Build 0)  -->
<svg version="1.1" id="Ebene_1" xmlns="http://www.w3.org/2000/svg" xmlns:xlink="http://www.w3.org/1999/xlink" x="0px" y="0px"
	 viewBox="0 0 300 300" style="enable-background:new 0 0 300 300;" xml:space="preserve">
<style type="text/css">
	.st0{fill:#FFFFFF;}
	.st1{fill:url(#SVGID_1_);}
	.st2{fill:url(#SVGID_2_);}
	.st3{fill:url(#SVGID_3_);}
	.st4{fill:url(#SVGID_4_);}
	.st5{fill:url(#SVGID_5_);}
	.st6{fill:url(#SVGID_6_);}
</style>
<g>
	<linearGradient id="SVGID_1_" gradientUnits="userSpaceOnUse" x1="170.3743" y1="66.9492" x2="170.3743" y2="177.3106">
		<stop  offset="0" style="stop-color:#7727E1;stop-opacity:0.4"/>
		<stop  offset="1" style="stop-color:#7727E1"/>
	</linearGradient>
	<path class="st1" d="M211.1,67C211.1,67,211.1,66.9,211.1,67c-22.5,0-40.7,18.2-40.7,40.7V136c0,11.1-8.6,20.5-19.6,20.9
		c-11.6,0.4-21.1-8.9-21.1-20.4c0,22.2,17.8,40.3,39.9,40.7c22.9,0.5,41.6-18.7,41.6-41.6V67z"/>
	<linearGradient id="SVGID_2_" gradientUnits="userSpaceOnUse" x1="129.6257" y1="66.9492" x2="129.6257" y2="233.0509">
		<stop  offset="0" style="stop-color:#62D4A1"/>
		<stop  offset="0.9695" style="stop-color:#62D4A1;stop-opacity:0.2244"/>
		<stop  offset="1" style="stop-color:#62D4A1;stop-opacity:0.2"/>
	</linearGradient>
	<path class="st2" d="M88.9,233.1c22.5,0,40.7-18.2,40.7-40.7v-84.6c0-11.3,9.1-20.4,20.4-20.4c11.2,0,20.4,9.1,20.4,20.4
		c0-22.5-18.2-40.7-40.7-40.7s-40.7,18.2-40.7,40.7V233.1z"/>
</g>
</svg>
